<?xml version="1.0" encoding="utf-8"?>
<!-- Generator: Adobe Illustrator 28.2.0, SVG Export Plug-In . SVG Version: 6.00 Build 0)  -->
<svg version="1.1" id="Layer_1" xmlns="http://www.w3.org/2000/svg" xmlns:xlink="http://www.w3.org/1999/xlink" x="0px" y="0px"
	 viewBox="0 0 566.93 425.2" style="enable-background:new 0 0 566.93 425.2;" xml:space="preserve">
<style type="text/css">
	.st0{display:none;}
	.st1{fill:#FFFFFF;}
	.st2{fill:none;stroke:#FFFFFF;stroke-width:19;stroke-miterlimit:10;}
</style>
<rect class="st0" width="566.93" height="425.2"/>
<rect x="89.64" y="170.44" class="st0" width="375.82" height="104"/>
<rect x="697.01" y="216.54" style="fill:none;" width="12.11" height="1.35"/>
<g class="st0">
</g>
<g>
	<path class="st1" d="M154.32,111.84v16.63h-21.7V195h-20.01v-66.53h-21.7v-16.63H154.32z"/>
	<path class="st1" d="M206.99,195l-13.86-31.46h-10.37V195h-20.01v-83.17h31.34c19.16,0,31.46,8.8,31.46,26.15
		c0,10.85-4.82,18.2-13.26,22.06L228.93,195H206.99z M191.68,146.91c8.08,0,13.86-1.08,13.86-8.92c0-7.96-5.79-9.52-13.86-9.52
		h-8.92v18.44H191.68z"/>
	<path class="st1" d="M259.18,195h-20.01v-83.17h20.01V195z"/>
	<path class="st1" d="M303.9,111.84c19.65,0,31.1,6.87,31.1,22.06c0,8.56-3.74,13.5-9.52,17.36c7.59,3.74,12.17,9.64,12.17,19.89
		c0,13.26-8.92,23.87-31.1,23.87h-31.7v-83.17H303.9z M294.86,143.54h8.44c8.08,0,11.69-2.53,11.69-7.35c0-4.94-2.53-7.83-13.5-7.83
		h-6.63V143.54z M294.86,178.37h9.52c8.92,0,13.26-3.01,13.26-9.16c0-6.75-4.58-9.04-14.7-9.04h-8.08V178.37z"/>
	<path class="st1" d="M340.05,195l28.93-83.17h19.29L417.19,195h-21.33l-4.46-14.22h-25.67L361.39,195H340.05z M370.91,164.15h15.31
		l-7.59-24.59L370.91,164.15z"/>
	<path class="st1" d="M443.23,178.37h32.54V195h-52.55v-83.17h20.01V178.37z"/>
</g>
<rect x="63.5" y="84.12" class="st2" width="439.92" height="249.51"/>
<g>
	<path class="st1" d="M137.58,273.9v15.15h-10.79V244.2h16.9c10.34,0,16.97,4.55,16.97,14.56c0,9.95-6.57,15.15-16.97,15.15H137.58z
		 M141.74,264.93c5.66,0,8.13-1.69,8.13-6.18c0-3.64-2.47-5.59-8.13-5.59h-4.16v11.77H141.74z"/>
	<path class="st1" d="M157.41,289.05l15.6-44.85h10.4l15.6,44.85H187.5l-2.41-7.67h-13.85l-2.34,7.67H157.41z M174.05,272.41h8.26
		l-4.1-13.26L174.05,272.41z"/>
	<path class="st1" d="M213.7,289.05h-10.79V244.2h10.79V289.05z"/>
	<path class="st1" d="M257.51,244.2v44.85h-8.71l-16.51-24.83v24.83h-10.14V244.2h8.58l16.64,25.16V244.2H257.51z"/>
	<path class="st1" d="M296.25,244.2v8.97h-11.7v35.88h-10.79v-35.88h-11.7v-8.97H296.25z"/>
	<path class="st1" d="M316.46,244.2c10.6,0,16.77,3.71,16.77,11.9c0,4.62-2.01,7.28-5.14,9.36c4.1,2.01,6.57,5.2,6.57,10.73
		c0,7.15-4.81,12.87-16.77,12.87h-17.1V244.2H316.46z M311.59,261.29h4.55c4.36,0,6.31-1.37,6.31-3.96c0-2.67-1.37-4.23-7.28-4.23
		h-3.58V261.29z M311.59,280.08h5.13c4.81,0,7.15-1.62,7.15-4.94c0-3.64-2.47-4.88-7.93-4.88h-4.36V280.08z"/>
	<path class="st1" d="M335.96,289.05l15.6-44.85h10.4l15.6,44.85h-11.5l-2.41-7.67H349.8l-2.34,7.67H335.96z M352.6,272.41h8.26
		l-4.1-13.26L352.6,272.41z"/>
	<path class="st1" d="M391.6,280.08h17.55v8.97h-28.34V244.2h10.79V280.08z"/>
	<path class="st1" d="M424.49,280.08h17.55v8.97H413.7V244.2h10.79V280.08z"/>
</g>
</svg>
