<?xml version="1.0" encoding="utf-8"?>
<!-- Generator: Adobe Illustrator 28.2.0, SVG Export Plug-In . SVG Version: 6.00 Build 0)  -->
<svg version="1.1" id="Calque_1" xmlns="http://www.w3.org/2000/svg" xmlns:xlink="http://www.w3.org/1999/xlink" x="0px" y="0px"
	 viewBox="0 0 500 120" style="enable-background:new 0 0 500 120;" xml:space="preserve">
<style type="text/css">
	.st0{opacity:0.5;}
	.st1{fill:none;stroke:#FFFFFF;stroke-width:0.25;stroke-miterlimit:10;}
</style>
<g class="st0">
	<path class="st1" d="M487.3-113.2h12.69v-0.49H487.3l-3.45-4.53l-3.45-4.53l3.45-4.53l0.72-0.94h-0.75l-0.53,0.7l-3.45,4.53h-13.78
		l-3.45-4.53l-0.53-0.7h-0.75l0.72,0.94l3.45,4.53l-3.45,4.53l-3.45,4.53h-13.78l-3.45-4.53l-3.44-4.53l3.44-4.53l0.72-0.94h-0.75
		l-0.53,0.7l-3.45,4.53H423.6l-3.45-4.53l-0.53-0.7h-0.75l0.72,0.94l3.45,4.53l-3.45,4.53l-3.45,4.53h-13.78l-3.45-4.53l-3.45-4.53
		l3.45-4.53l0.72-0.94h-0.75l-0.53,0.7l-3.45,4.53h-13.78l-3.45-4.53l-0.53-0.7h-0.75l0.72,0.94l3.45,4.53l-3.45,4.53l-3.45,4.53
		H359.9l-3.45-4.53l-3.45-4.53l3.45-4.53l0.72-0.94h-0.75l-0.53,0.7l-3.44,4.53h-13.78l-3.45-4.53l-0.53-0.7h-0.75l0.72,0.94
		l3.45,4.53l-3.45,4.53l-3.45,4.53h-13.78l-3.45-4.53l-3.45-4.53l3.45-4.53l0.72-0.94h-0.75l-0.53,0.7l-3.45,4.53h-13.78l-3.45-4.53
		l-0.53-0.7h-0.75l0.72,0.94l3.45,4.53l-3.45,4.53l-3.45,4.53h-13.78l-3.45-4.53l-3.45-4.53l3.45-4.53l0.72-0.94h-0.75l-0.53,0.7
		l-3.45,4.53h-13.78l-3.98-5.22H249l4.16,5.47l-6.89,9.05h-13.78l-3.45-4.53l-3.45-4.53l3.45-4.53l0.72-0.94h-0.75l-0.53,0.7
		l-3.45,4.53h-13.78l-3.45-4.53l-0.53-0.7h-0.75l0.72,0.94l3.44,4.53l-3.44,4.53l-3.45,4.53h-13.78l-3.45-4.53l-3.45-4.53l3.45-4.53
		l0.72-0.94h-0.75l-0.53,0.7l-3.45,4.53h-13.78l-3.45-4.53l-0.53-0.7h-0.75l0.72,0.94l3.45,4.53l-3.45,4.53l-3.45,4.53h-13.78
		l-3.44-4.53l-3.45-4.53l3.45-4.53l0.72-0.94h-0.75l-0.53,0.7l-3.45,4.53H126.3l-3.45-4.53l-0.53-0.7h-0.75l0.72,0.94l3.45,4.53
		l-3.45,4.53l-3.45,4.53h-13.78l-3.45-4.53l-3.45-4.53l3.45-4.53l0.72-0.94h-0.75l-0.53,0.7l-3.45,4.53H83.85l-3.45-4.53l-0.53-0.7
		h-0.75l0.72,0.94l3.45,4.53l-3.45,4.53l-3.45,4.53H62.61l-3.45-4.53l-3.45-4.53l3.45-4.53l0.72-0.94h-0.75l-0.53,0.7l-3.45,4.53
		H41.38l-3.45-4.53l-0.53-0.7h-0.75l0.72,0.94l3.45,4.53l-3.45,4.53l-3.45,4.53H20.15l-3.45-4.53l-3.45-4.53l3.45-4.53l0.72-0.94
		h-0.75l-0.53,0.7l-3.45,4.53H0v0.49h12.69l3.45,4.53l3.45,4.53l-3.45,4.53l-3.45,4.53H0v0.49h12.69l6.89,9.05l-3.45,4.53
		l-3.45,4.53H0v0.49h12.69l3.45,4.53l3.45,4.53l-3.45,4.53l-3.45,4.53H0v0.49h12.69l3.45,4.53l3.45,4.53l-3.45,4.53l-3.45,4.53H0
		v0.49h12.69l6.89,9.05l-3.45,4.53L12.69-30H0v0.49h12.69l3.45,4.53l3.45,4.53L12.7-11.4H0v0.49h12.69l3.45,4.53l3.45,4.53
		l-3.45,4.53L12.69,7.2H0v0.49h12.69l6.89,9.05l-3.45,4.53l-3.45,4.53H0v0.49h12.69l3.45,4.53l3.45,4.53L12.7,44.4H0v0.49h12.69
		l3.45,4.53l3.45,4.53l-3.45,4.53L12.69,63H0v0.49h12.69l3.45,4.53l3.45,4.53l-3.45,4.53l-3.45,4.53H0v0.49h12.69l3.45,4.53
		l3.45,4.53l-6.89,9.05H0v0.49h12.69l3.45,4.53l3.45,4.53l-3.45,4.53l-3.45,4.53H0v0.49h12.69l3.45,4.53l0.53,0.7h0.75l-0.72-0.94
		l-3.45-4.53l3.45-4.53l3.45-4.53h13.78l3.45,4.53l3.45,4.53l-3.45,4.53l-0.72,0.94h0.75l0.53-0.7l3.45-4.53h13.78l3.45,4.53
		l0.53,0.7h0.75l-0.72-0.94l-3.45-4.53l3.45-4.53l3.45-4.53h13.78l3.45,4.53l3.45,4.53l-3.45,4.53l-0.72,0.94h0.75l0.53-0.7
		l3.45-4.53h13.78l3.45,4.53l0.53,0.7h0.75l-0.72-0.94l-3.45-4.53l3.45-4.53l3.45-4.53h13.78l3.45,4.53l3.45,4.53l-3.45,4.53
		l-0.72,0.94h0.75l0.53-0.7l3.45-4.53h13.78l3.45,4.53l0.53,0.7h0.75l-0.72-0.94l-3.45-4.53l3.45-4.53l3.44-4.53h13.78l3.45,4.53
		l3.45,4.53l-3.45,4.53l-0.72,0.94h0.75l0.53-0.7l3.45-4.53h13.78l3.45,4.53l0.53,0.7h0.75l-0.72-0.94l-3.45-4.53l3.45-4.53
		l3.45-4.53h13.78l3.45,4.53l3.44,4.53l-3.44,4.53l-0.72,0.94h0.75l0.53-0.7l3.45-4.53h13.78l3.45,4.53l0.53,0.7h0.75l-0.72-0.94
		l-3.45-4.53l3.45-4.53l3.45-4.53h13.78l6.89,9.05l-4.16,5.47h0.75l3.98-5.22h13.78l3.45,4.53l0.53,0.7h0.75l-0.72-0.94l-3.45-4.53
		l3.45-4.53l3.45-4.53h13.78l3.45,4.53l3.45,4.53l-3.45,4.53l-0.72,0.94h0.75l0.53-0.7l3.45-4.53h13.78l3.45,4.53l0.53,0.7h0.75
		l-0.72-0.94l-3.45-4.53l3.45-4.53l3.45-4.53h13.78l3.45,4.53l3.45,4.53l-3.45,4.53l-0.72,0.94h0.75l0.53-0.7l3.45-4.53h13.78
		l3.44,4.53l0.53,0.7h0.75l-0.72-0.94l-3.45-4.53l3.45-4.53l3.45-4.53h13.78l3.45,4.53l3.45,4.53l-3.45,4.53l-0.72,0.94h0.75
		l0.53-0.7l3.45-4.53h13.78l3.45,4.53l0.53,0.7h0.75L399,123.6l-3.45-4.53l3.45-4.53l3.45-4.53h13.78l3.45,4.53l3.45,4.53
		l-3.45,4.53l-0.72,0.94h0.75l0.53-0.7l3.45-4.53h13.78l3.45,4.53l0.53,0.7h0.75l-0.72-0.94l-3.44-4.53l3.44-4.53l3.45-4.53h13.78
		l3.45,4.53l3.45,4.53l-3.45,4.53l-0.72,0.94h0.75l0.53-0.7l3.45-4.53h13.78l3.45,4.53l0.53,0.7h0.75l-0.72-0.94l-3.45-4.53
		l3.45-4.53l3.45-4.53h12.69v-0.49h-12.8l-3.45-4.53l-3.45-4.53l3.45-4.53l3.45-4.53h12.69v-0.5H487.3l-3.45-4.53l-3.45-4.53
		l3.45-4.53l3.45-4.53h12.69V72.3H487.3l-6.89-9.05l3.45-4.53l3.45-4.53H500V53.7h-12.7l-3.45-4.53l-3.45-4.53l3.45-4.53l3.45-4.53
		h12.69V35.1H487.3l-3.45-4.53l-3.45-4.53l3.45-4.53l3.45-4.53h12.69V16.5H487.3l-3.45-4.53l-3.45-4.53l3.45-4.53l3.45-4.53h12.69
		V-2.1H487.3l-3.45-4.53l-3.45-4.53l6.89-9.05h12.69v-0.49H487.3l-3.45-4.53l-3.45-4.53l3.45-4.53l3.45-4.53h12.69v-0.49H487.3
		l-6.89-9.05l3.45-4.53l3.45-4.53H500v-0.49h-12.7l-3.45-4.53l-3.45-4.53l3.45-4.53l3.45-4.5h12.69v-0.49H487.3l-3.45-4.53
		l-3.45-4.53l3.45-4.53l3.45-4.53h12.69v-0.49H487.3l-3.45-4.53l-3.45-4.53l3.45-4.53L487.3-113.2z M458.62-113.2l3.45,4.53
		l3.45,4.53l-3.45,4.53l-3.45,4.53h-13.78l-3.45-4.53l-3.44-4.53l3.44-4.53l3.45-4.53C444.83-113.2,458.62-113.2,458.62-113.2z
		 M338.66-11.4l-3.45-4.53l-3.45-4.53l3.45-4.53l3.45-4.53h13.78l3.44,4.53l3.45,4.53l-3.45,4.53l-3.44,4.53H338.66z M355.89-6.38
		l3.45,4.53l-3.45,4.53l-3.44,4.53h-13.78l-3.45-4.53l-3.45-4.53l3.45-4.53l3.45-4.53h13.78L355.89-6.38z M334.65-15.68l3.45,4.53
		l-3.45,4.53l-3.45,4.53h-13.78l-3.45-4.53l-3.45-4.53l3.45-4.53l3.45-4.53h13.78L334.65-15.68z M316.86-1.85l-3.45,4.53l-3.45,4.53
		h-13.78l-3.45-4.53l-3.44-4.53l3.44-4.53l3.45-4.53h13.78l3.45,4.53L316.86-1.85z M309.97-11.4h-13.78l-3.45-4.53l-3.44-4.53
		l3.44-4.53l3.45-4.53h13.78l3.45,4.53l3.45,4.53L309.97-11.4z M292.19-15.68l3.45,4.53l-3.45,4.53l-3.45,4.53h-13.78l-3.45-4.53
		l-3.45-4.53l3.45-4.53l3.45-4.53h13.78L292.19-15.68z M274.39-1.85l-3.45,4.53L267.5,7.2h-13.78l-6.89-9.05l6.89-9.05h13.78
		l3.45,4.53L274.39-1.85z M267.5-11.4h-13.78l-6.89-9.05l6.89-9.05h13.78l3.45,4.53l3.45,4.53L267.5-11.4z M253.16-11.15l-6.89,9.05
		h-13.78l-3.45-4.53l-3.45-4.53l6.89-9.05h13.78L253.16-11.15z M231.93-1.85l-3.45,4.53l-3.45,4.53h-13.78l-3.45-4.53l-3.45-4.53
		l3.45-4.53l3.45-4.53h13.78l3.45,4.53L231.93-1.85z M228.48-15.92l-3.45,4.53h-13.78l-3.45-4.53l-3.45-4.53l3.45-4.53l3.45-4.53
		h13.78l3.45,4.53l3.45,4.53L228.48-15.92z M207.25-15.68l3.44,4.53l-3.44,4.53L203.8-2.1h-13.78l-3.45-4.53l-3.45-4.53l6.89-9.05
		h13.78L207.25-15.68z M189.46-1.85l-3.45,4.53l-3.45,4.53h-13.78l-3.45-4.53l-3.45-4.53l3.45-4.53l3.45-4.53h13.78l3.45,4.53
		L189.46-1.85z M186.01-15.92l-3.45,4.53h-13.78l-3.45-4.53l-3.45-4.53l3.45-4.53l3.45-4.53h13.78l3.45,4.53l3.45,4.53L186.01-15.92
		z M164.78-15.68l3.45,4.53l-3.45,4.53l-3.45,4.53h-13.78l-3.44-4.53l-3.45-4.53l3.45-4.53l3.44-4.53h13.78L164.78-15.68z
		 M143.54-15.92l-3.45,4.53h-13.78l-3.45-4.53l-3.45-4.53l3.45-4.53l3.45-4.53h13.78l3.45,4.53l3.45,4.53L143.54-15.92z M140.1-10.9
		l3.45,4.53L147-1.84l-3.45,4.53L140.1,7.2h-13.78l-3.45-4.53l-3.45-4.53l3.45-4.53l3.45-4.53h13.78V-10.9z M140.1,7.69l3.45,4.53
		l3.45,4.53l-3.45,4.53l-3.45,4.53h-13.78l-3.45-4.53l-3.45-4.53l3.45-4.53l3.45-4.53C126.32,7.69,140.1,7.69,140.1,7.69z
		 M144.11,11.97l-3.45-4.53l3.45-4.53l3.44-4.53h13.78l3.45,4.53l3.45,4.53l-3.45,4.53l-3.45,4.53h-13.78L144.11,11.97z
		 M165.34,12.22l3.45-4.53h13.78l3.45,4.53l3.45,4.53l-3.45,4.53l-3.45,4.53h-13.78l-3.45-4.53l-3.45-4.53L165.34,12.22z
		 M186.58,11.97l-3.45-4.53l3.45-4.53l3.45-4.53h13.78l3.45,4.53l3.44,4.53l-3.44,4.53l-3.45,4.53h-13.78L186.58,11.97z
		 M207.81,12.22l3.45-4.53h13.78l3.45,4.53l3.45,4.53l-3.45,4.53l-3.45,4.53h-13.78l-3.45-4.53l-3.45-4.53L207.81,12.22z
		 M229.05,11.97l-3.45-4.53l3.45-4.53l3.45-4.53h13.78l6.89,9.05l-6.89,9.05H232.5L229.05,11.97z M253.72,7.69h13.78l6.89,9.05
		l-3.45,4.53l-3.45,4.53h-13.78l-6.89-9.05L253.72,7.69z M271.51,11.97l-3.45-4.53l3.45-4.53l3.45-4.53h13.78l3.45,4.53l3.45,4.53
		l-3.45,4.53l-3.45,4.53h-13.78L271.51,11.97z M292.75,12.22l3.45-4.53h13.78l6.89,9.05l-3.45,4.53l-3.45,4.53h-13.78l-3.45-4.53
		l-3.44-4.53L292.75,12.22z M313.98,11.97l-3.45-4.53l3.45-4.53l3.45-4.53h13.78l3.45,4.53l3.45,4.53l-3.45,4.53l-3.45,4.53h-13.78
		L313.98,11.97z M335.22,12.22l3.45-4.53h13.78l3.44,4.53l3.45,4.53l-3.45,4.53l-3.44,4.53h-13.78l-3.45-4.53l-3.45-4.53
		L335.22,12.22z M356.45,11.97L353,7.44l3.45-4.53l3.45-4.53h13.78l3.45,4.53l3.45,4.53l-3.45,4.53l-3.45,4.53H359.9L356.45,11.97z
		 M359.9-2.1l-3.45-4.53L353-11.16l3.45-4.53l3.45-4.53h13.78l3.45,4.53l3.45,4.53l-3.45,4.53l-3.45,4.53
		C373.68-2.1,359.9-2.1,359.9-2.1z M359.9-20.7l-3.45-4.53L353-29.76l3.45-4.53l3.45-4.53h13.78l3.45,4.53l3.45,4.53l-3.45,4.53
		l-3.45,4.53C373.68-20.7,359.9-20.7,359.9-20.7z M355.89-34.52L352.44-30h-13.78l-3.45-4.53l-3.45-4.53l3.45-4.53l3.45-4.53h13.78
		l3.44,4.53l3.45,4.53L355.89-34.52z M334.65-34.28l3.45,4.53l-3.45,4.53l-3.45,4.53h-13.78l-3.45-4.53l-3.45-4.53l3.45-4.53
		l3.45-4.53h13.78L334.65-34.28z M313.42-34.52L309.97-30h-13.78l-3.45-4.53l-3.44-4.53l3.44-4.53l3.45-4.53h13.78l6.89,9.05
		L313.42-34.52z M292.19-34.28l3.45,4.53l-3.45,4.53l-3.45,4.53h-13.78l-3.45-4.53l-3.45-4.53l3.45-4.53l3.45-4.53h13.78
		L292.19-34.28z M270.95-34.52L267.5-30h-13.78l-6.89-9.05l6.89-9.05h13.78l6.89,9.05L270.95-34.52z M253.16-29.75l-6.89,9.05
		h-13.78l-3.45-4.53l-3.45-4.53l3.45-4.53l3.45-4.53h13.78L253.16-29.75z M228.48-34.52L225.04-30h-13.78l-3.45-4.53l-3.45-4.53
		l3.45-4.53l3.45-4.53h13.78l3.45,4.53l3.45,4.53L228.48-34.52z M207.25-34.28l3.44,4.53l-3.44,4.53l-3.45,4.53h-13.78l-3.45-4.53
		l-3.45-4.53l3.45-4.53l3.45-4.53h13.78L207.25-34.28z M186.01-34.52L182.57-30h-13.78l-3.45-4.53l-3.45-4.53l3.45-4.53l3.45-4.53
		h13.78l3.45,4.53l3.45,4.53L186.01-34.52z M164.78-34.28l3.45,4.53l-3.45,4.53l-3.45,4.53h-13.78l-3.44-4.53l-3.45-4.53l3.45-4.53
		l3.44-4.53h13.78L164.78-34.28z M143.54-34.52L140.1-30h-13.78l-3.45-4.53l-3.45-4.53l3.45-4.53l3.45-4.53h13.78l3.45,4.53
		l3.45,4.53L143.54-34.52z M122.31-34.28l3.45,4.53l-3.45,4.53l-3.45,4.53h-13.78l-3.45-4.53l-3.45-4.53l3.45-4.53l3.45-4.53h13.78
		L122.31-34.28z M118.86-20.21l3.45,4.53l3.45,4.53l-3.45,4.53l-3.45,4.53h-13.78l-3.45-4.53l-3.45-4.53l3.45-4.53l3.45-4.53H118.86
		z M118.86-1.61l3.45,4.53l3.45,4.53l-3.45,4.53l-3.45,4.53h-13.78l-3.45-4.53l-3.45-4.53l3.45-4.53l3.45-4.53
		C105.08-1.61,118.86-1.61,118.86-1.61z M118.86,16.99l3.45,4.53l3.45,4.53l-3.45,4.53l-3.45,4.53h-13.78l-3.45-4.53l-3.45-4.53
		l3.45-4.53l3.45-4.53C105.08,16.99,118.86,16.99,118.86,16.99z M122.87,30.82l3.45-4.53h13.78l3.45,4.53l3.45,4.53l-3.45,4.53
		l-3.45,4.53h-13.78l-3.45-4.53l-3.45-4.53L122.87,30.82z M144.11,30.57l-3.45-4.53l3.45-4.53l3.44-4.53h13.78l3.45,4.53l3.45,4.53
		l-3.45,4.53l-3.45,4.53h-13.78L144.11,30.57z M165.34,30.82l3.45-4.53h13.78l3.45,4.53l3.45,4.53l-3.45,4.53l-3.45,4.53h-13.78
		l-3.45-4.53l-3.45-4.53L165.34,30.82z M186.58,30.57l-3.45-4.53l3.45-4.53l3.45-4.53h13.78l3.45,4.53l3.44,4.53l-3.44,4.53
		l-3.45,4.53h-13.78L186.58,30.57z M207.81,30.82l3.45-4.53h13.78l3.45,4.53l3.45,4.53l-3.45,4.53l-3.45,4.53h-13.78l-3.45-4.53
		l-3.45-4.53L207.81,30.82z M229.05,30.57l-3.45-4.53l3.45-4.53l3.45-4.53h13.78l6.89,9.05l-6.89,9.05H232.5L229.05,30.57z
		 M253.72,26.29h13.78l3.45,4.53l3.45,4.53l-6.89,9.05h-13.78l-6.89-9.05L253.72,26.29z M271.51,30.57l-3.45-4.53l3.45-4.53
		l3.45-4.53h13.78l3.45,4.53l3.45,4.53l-3.45,4.53l-3.45,4.53h-13.78L271.51,30.57z M292.75,30.82l3.45-4.53h13.78l3.45,4.53
		l3.45,4.53l-6.89,9.05h-13.78l-3.45-4.53l-3.44-4.53L292.75,30.82z M313.98,30.57l-3.45-4.53l3.45-4.53l3.45-4.53h13.78l3.45,4.53
		l3.45,4.53l-3.45,4.53l-3.45,4.53h-13.78L313.98,30.57z M335.22,30.82l3.45-4.53h13.78l3.44,4.53l3.45,4.53l-3.45,4.53l-3.44,4.53
		h-13.78l-3.45-4.53l-3.45-4.53L335.22,30.82z M356.45,30.57L353,26.04l3.45-4.53l3.45-4.53h13.78l3.45,4.53l3.45,4.53l-3.45,4.53
		l-3.45,4.53H359.9L356.45,30.57z M377.69,30.82l3.45-4.53h13.78l3.45,4.53l3.45,4.53l-3.45,4.53l-3.45,4.53h-13.78l-3.45-4.53
		l-3.45-4.53L377.69,30.82z M381.13,25.8l-3.45-4.53l-3.45-4.53l3.45-4.53l3.45-4.53h13.78l3.45,4.53l3.45,4.53l-3.45,4.53
		l-3.45,4.53H381.13z M381.13,7.2l-3.45-4.53l-3.45-4.53l3.45-4.53l3.45-4.53h13.78l3.45,4.53l3.45,4.53l-3.45,4.53l-3.45,4.53
		H381.13z M381.13-11.4l-3.45-4.53l-3.45-4.53l3.45-4.53l3.45-4.53h13.78l3.45,4.53l3.45,4.53l-3.45,4.53l-3.45,4.53H381.13z
		 M381.13-30l-3.45-4.53l-3.45-4.53l3.45-4.53l3.45-4.53h13.78l3.45,4.53l3.45,4.53l-3.45,4.53L394.91-30H381.13z M381.13-48.6
		l-3.45-4.53l-3.45-4.53l3.45-4.53l3.45-4.53h13.78l3.45,4.53l3.45,4.53l-3.45,4.53l-3.45,4.53H381.13z M377.12-52.88l3.45,4.53
		l-3.45,4.53l-3.45,4.53H359.9l-3.45-4.53L353-48.35l3.45-4.53l3.45-4.53h13.78L377.12-52.88z M355.89-53.12l-3.44,4.53h-13.78
		l-3.45-4.53l-3.45-4.53l3.45-4.53l3.45-4.53h13.78l3.44,4.53l3.45,4.53L355.89-53.12z M334.65-52.88l3.45,4.53l-3.45,4.53
		l-3.45,4.53h-13.78l-3.45-4.53l-3.45-4.53l3.45-4.53l3.45-4.53h13.78L334.65-52.88z M313.42-53.12l-3.45,4.53h-13.78l-3.45-4.53
		l-3.44-4.53l3.44-4.53l3.45-4.53h13.78l3.45,4.53l3.45,4.53L313.42-53.12z M292.19-52.88l3.45,4.53l-3.45,4.53l-3.45,4.53h-13.78
		l-3.45-4.53l-3.45-4.53l3.45-4.53l3.45-4.53h13.78L292.19-52.88z M270.95-53.12l-3.45,4.53h-13.78l-6.89-9.05l6.89-9.05h13.78
		l3.45,4.53l3.45,4.53L270.95-53.12z M253.16-48.35l-6.89,9.05h-13.78l-6.89-9.05l3.45-4.53l3.45-4.53h13.78L253.16-48.35z
		 M228.48-53.12l-3.45,4.53h-13.78l-3.45-4.53l-3.45-4.53l3.45-4.53l3.45-4.53h13.78l3.45,4.53l3.45,4.53L228.48-53.12z
		 M207.25-52.88l3.44,4.53l-3.44,4.53l-3.45,4.53h-13.78l-6.89-9.05l3.45-4.53l3.45-4.53h13.78L207.25-52.88z M186.01-53.12
		l-3.45,4.53h-13.78l-3.45-4.53l-3.45-4.53l3.45-4.53l3.45-4.53h13.78l3.45,4.53l3.45,4.53L186.01-53.12z M164.78-52.88l3.45,4.53
		l-3.45,4.53l-3.45,4.53h-13.78l-3.44-4.53l-3.45-4.53l3.45-4.53l3.44-4.53h13.78L164.78-52.88z M143.54-53.12l-3.45,4.53h-13.78
		l-3.45-4.53l-3.45-4.53l3.45-4.53l3.45-4.53h13.78l3.45,4.53l3.45,4.53L143.54-53.12z M122.31-52.88l3.45,4.53l-3.45,4.53
		l-3.45,4.53h-13.78l-3.45-4.53l-3.45-4.53l3.45-4.53l3.45-4.53h13.78L122.31-52.88z M101.07-53.12l-3.45,4.53H83.85l-3.45-4.53
		l-3.45-4.53l3.45-4.53l3.45-4.53h13.78l3.45,4.53l3.45,4.53L101.07-53.12z M97.63-48.1l3.45,4.53l3.45,4.53l-3.45,4.53L97.63-30
		H83.85l-3.45-4.53l-3.45-4.53l3.45-4.53l3.45-4.53L97.63-48.1L97.63-48.1z M97.63-29.5l3.45,4.53l3.45,4.53l-3.45,4.53l-3.45,4.53
		H83.85l-3.45-4.53l-3.45-4.53l3.45-4.53l3.45-4.53H97.63z M97.63-10.9l3.45,4.53l3.45,4.53l-3.45,4.53L97.63,7.2H83.85L80.4,2.67
		l-3.45-4.53l3.45-4.53l3.45-4.53h13.78V-10.9z M97.63,7.69l3.45,4.53l3.45,4.53l-3.45,4.53l-3.45,4.53H83.85l-3.45-4.53l-3.45-4.53
		l3.45-4.53l3.45-4.53C83.85,7.69,97.63,7.69,97.63,7.69z M97.63,26.29l3.45,4.53l3.45,4.53l-3.45,4.53l-3.45,4.53H83.85l-3.45-4.53
		l-3.45-4.53l3.45-4.53l3.45-4.53H97.63z M97.63,44.89l3.45,4.53l3.45,4.53l-3.45,4.53L97.63,63H83.85l-3.45-4.53l-3.45-4.53
		l3.45-4.53l3.45-4.53L97.63,44.89L97.63,44.89z M101.64,49.17l-3.45-4.53l3.45-4.53l3.45-4.53h13.78l3.45,4.53l3.45,4.53
		l-3.45,4.53l-3.45,4.53h-13.78L101.64,49.17z M122.87,49.42l3.45-4.53h13.78l3.45,4.53l3.45,4.53l-3.45,4.53L140.1,63h-13.78
		l-3.45-4.53l-3.45-4.53L122.87,49.42z M144.11,49.17l-3.45-4.53l3.45-4.53l3.44-4.53h13.78l3.45,4.53l3.45,4.53l-3.45,4.53
		l-3.45,4.53h-13.78L144.11,49.17z M165.34,49.42l3.45-4.53h13.78l3.45,4.53l3.45,4.53l-3.45,4.53L182.57,63h-13.78l-3.45-4.53
		l-3.45-4.53L165.34,49.42z M186.58,49.17l-3.45-4.53l3.45-4.53l3.45-4.53h13.78l3.45,4.53l3.44,4.53l-3.44,4.53l-3.45,4.53h-13.78
		L186.58,49.17z M207.81,49.42l3.45-4.53h13.78l3.45,4.53l3.45,4.53l-3.45,4.53L225.04,63h-13.78l-3.45-4.53l-3.45-4.53
		L207.81,49.42z M229.05,49.17l-3.45-4.53l3.45-4.53l3.45-4.53h13.78l6.89,9.05l-6.89,9.05H232.5L229.05,49.17z M253.72,44.89h13.78
		l3.45,4.53l3.45,4.53l-3.45,4.53L267.5,63h-13.78l-6.89-9.05L253.72,44.89z M271.51,49.17l-3.45-4.53l3.45-4.53l3.45-4.53h13.78
		l3.45,4.53l3.45,4.53l-3.45,4.53l-3.45,4.53h-13.78L271.51,49.17z M292.75,49.42l3.45-4.53h13.78l3.45,4.53l3.45,4.53l-3.45,4.53
		L309.97,63h-13.78l-3.45-4.53l-3.44-4.53L292.75,49.42z M313.98,49.17l-3.45-4.53l3.45-4.53l3.45-4.53h13.78l3.45,4.53l3.45,4.53
		l-3.45,4.53l-3.45,4.53h-13.78L313.98,49.17z M335.22,49.42l3.45-4.53h13.78l3.44,4.53l3.45,4.53l-3.45,4.53L352.44,63h-13.78
		l-3.45-4.53l-3.45-4.53L335.22,49.42z M356.45,49.17L353,44.64l3.45-4.53l3.45-4.53h13.78l3.45,4.53l3.45,4.53l-3.45,4.53
		l-3.45,4.53H359.9L356.45,49.17z M377.69,49.42l3.45-4.53h13.78l3.45,4.53l3.45,4.53l-3.45,4.53L394.91,63h-13.78l-3.45-4.53
		l-3.45-4.53L377.69,49.42z M398.92,49.17l-3.45-4.53l3.45-4.53l3.45-4.53h13.78l3.45,4.53l3.45,4.53l-3.45,4.53l-3.45,4.53h-13.78
		L398.92,49.17z M402.37,35.1l-3.45-4.53l-3.45-4.53l3.45-4.53l3.45-4.53h13.78l3.45,4.53l3.45,4.53l-3.45,4.53l-3.45,4.53H402.37z
		 M402.37,16.5l-3.45-4.53l-3.45-4.53l3.45-4.53l3.45-4.53h13.78l3.45,4.53l3.45,4.53l-3.45,4.53l-3.45,4.53H402.37z M402.37-2.1
		l-3.45-4.53l-3.45-4.53l3.45-4.53l3.45-4.53h13.78l3.45,4.53l3.45,4.53l-3.45,4.53l-3.45,4.53C416.15-2.1,402.37-2.1,402.37-2.1z
		 M402.37-20.7l-3.45-4.53l-3.45-4.53l3.45-4.53l3.45-4.53h13.78l3.45,4.53l3.45,4.53l-3.45,4.53l-3.45,4.53
		C416.15-20.7,402.37-20.7,402.37-20.7z M402.37-39.3l-3.45-4.53l-3.45-4.53l3.45-4.53l3.45-4.53h13.78l3.45,4.53l3.45,4.53
		l-3.45,4.53l-3.45,4.53H402.37z M402.37-57.9l-3.45-4.53l-3.45-4.53l3.45-4.53l3.45-4.53h13.78l3.45,4.53l3.45,4.53l-3.45,4.53
		l-3.45,4.53H402.37z M398.36-71.72l-3.45,4.53h-13.78l-3.45-4.53l-3.45-4.53l3.45-4.53l3.45-4.53h13.78l3.45,4.53l3.45,4.53
		L398.36-71.72z M377.12-71.48l3.45,4.53l-3.45,4.53l-3.45,4.53H359.9l-3.45-4.53L353-66.95l3.45-4.53L359.9-76h13.78L377.12-71.48z
		 M355.89-71.72l-3.44,4.53h-13.78l-3.45-4.53l-3.45-4.53l3.45-4.53l3.45-4.53h13.78l3.44,4.53l3.45,4.53L355.89-71.72z
		 M334.65-71.48l3.45,4.53l-3.45,4.53l-3.45,4.53h-13.78l-3.45-4.53l-3.45-4.53l3.45-4.53l3.45-4.53h13.78L334.65-71.48z
		 M313.42-71.72l-3.45,4.53h-13.78l-3.45-4.53l-3.44-4.53l3.44-4.53l3.45-4.53h13.78l3.45,4.53l3.45,4.53L313.42-71.72z
		 M292.19-71.48l3.45,4.53l-3.45,4.53l-3.45,4.53h-13.78l-3.45-4.53l-3.45-4.53l3.45-4.53l3.45-4.53h13.78L292.19-71.48z
		 M270.95-71.72l-3.45,4.53h-13.78l-6.89-9.05l6.89-9.05h13.78l3.45,4.53l3.45,4.53L270.95-71.72z M253.16-66.95l-6.89,9.05h-13.78
		l-3.45-4.53l-3.45-4.53l3.45-4.53l3.45-4.53h13.78L253.16-66.95z M228.48-71.72l-3.45,4.53h-13.78l-3.45-4.53l-3.45-4.53l3.45-4.53
		l3.45-4.53h13.78l3.45,4.53l3.45,4.53L228.48-71.72z M207.25-71.48l3.44,4.53l-3.44,4.53l-3.45,4.53h-13.78l-3.45-4.53l-3.45-4.53
		l3.45-4.53l3.45-4.53h13.78L207.25-71.48z M186.01-71.72l-3.45,4.53h-13.78l-3.45-4.53l-3.45-4.53l3.45-4.53l3.45-4.53h13.78
		l3.45,4.53l3.45,4.53L186.01-71.72z M164.78-71.48l3.45,4.53l-3.45,4.53l-3.45,4.53h-13.78l-3.44-4.53l-3.45-4.53l3.45-4.53
		l3.44-4.53h13.78L164.78-71.48z M143.54-71.72l-3.45,4.53h-13.78l-3.45-4.53l-3.45-4.53l3.45-4.53l3.45-4.53h13.78l3.45,4.53
		l3.45,4.53L143.54-71.72z M122.31-71.48l3.45,4.53l-3.45,4.53l-3.45,4.53h-13.78l-3.45-4.53l-3.45-4.53l3.45-4.53l3.45-4.53h13.78
		L122.31-71.48z M101.07-71.72l-3.45,4.53H83.85l-3.45-4.53l-3.45-4.53l3.45-4.53l3.45-4.53h13.78l3.45,4.53l3.45,4.53L101.07-71.72
		z M79.84-71.48l3.45,4.53l-3.45,4.53l-3.45,4.53H62.61l-3.45-4.53l-3.45-4.53l3.45-4.53L62.61-76h13.78L79.84-71.48z M76.39-57.4
		l3.45,4.53l3.45,4.53l-3.45,4.53l-3.45,4.53H62.61l-3.45-4.53l-3.45-4.53l3.45-4.53l3.45-4.53H76.39L76.39-57.4z M76.39-38.8
		l3.45,4.53l3.45,4.53l-3.45,4.53l-3.45,4.53H62.61l-3.45-4.53l-3.45-4.53l3.45-4.53l3.45-4.53H76.39z M76.39-20.21l3.45,4.53
		l3.45,4.53l-3.45,4.53L76.39-2.1H62.61l-3.45-4.53l-3.45-4.53l3.45-4.53l3.45-4.53h13.78V-20.21z M76.39-1.61l3.45,4.53l3.45,4.53
		l-3.45,4.53l-3.45,4.53H62.61l-3.45-4.53l-3.45-4.53l3.45-4.53l3.45-4.53C62.61-1.61,76.39-1.61,76.39-1.61z M76.39,16.99
		l3.45,4.53l3.45,4.53l-3.45,4.53l-3.45,4.53H62.61l-3.45-4.53l-3.45-4.53l3.45-4.53l3.45-4.53C62.61,16.99,76.39,16.99,76.39,16.99
		z M76.39,35.59l3.45,4.53l3.45,4.53l-3.45,4.53l-3.45,4.53H62.61l-3.45-4.53l-3.45-4.53l3.45-4.53l3.45-4.53H76.39L76.39,35.59z
		 M76.39,54.19l3.45,4.53l3.45,4.53l-3.45,4.53l-3.45,4.53H62.61l-3.45-4.53l-3.45-4.53l3.45-4.53l3.45-4.53
		C62.61,54.19,76.39,54.19,76.39,54.19z M80.4,68.02l3.45-4.53h13.78l3.45,4.53l3.45,4.53l-3.45,4.53l-3.45,4.53H83.85l-3.45-4.53
		l-3.45-4.53L80.4,68.02z M101.64,67.77l-3.45-4.53l3.45-4.53l3.45-4.53h13.78l3.45,4.53l3.45,4.53l-3.45,4.53l-3.45,4.53h-13.78
		L101.64,67.77z M122.87,68.02l3.45-4.53h13.78l3.45,4.53l3.45,4.53l-3.45,4.53l-3.45,4.53h-13.78l-3.45-4.53l-3.45-4.53
		L122.87,68.02z M144.11,67.77l-3.45-4.53l3.45-4.53l3.44-4.53h13.78l3.45,4.53l3.45,4.53l-3.45,4.53l-3.45,4.53h-13.78
		L144.11,67.77z M165.34,68.02l3.45-4.53h13.78l3.45,4.53l3.45,4.53l-3.45,4.53l-3.45,4.53h-13.78l-3.45-4.53l-3.45-4.53
		L165.34,68.02z M183.13,63.24l3.45-4.53l3.45-4.53h13.78l3.45,4.53l3.44,4.53l-3.44,4.53l-3.45,4.53h-13.78L183.13,63.24z
		 M207.81,68.02l3.45-4.53h13.78l3.45,4.53l3.45,4.53l-3.45,4.53l-3.45,4.53h-13.78l-3.45-4.53l-3.45-4.53L207.81,68.02z
		 M225.6,63.24l3.45-4.53l3.45-4.53h13.78l6.89,9.05l-6.89,9.05H232.5L225.6,63.24z M253.72,63.49h13.78l3.45,4.53l3.45,4.53
		l-3.45,4.53l-3.45,4.53h-13.78l-6.89-9.05L253.72,63.49z M271.51,67.77l-3.45-4.53l3.45-4.53l3.45-4.53h13.78l3.45,4.53l3.45,4.53
		l-3.45,4.53l-3.45,4.53h-13.78L271.51,67.77z M292.75,68.02l3.45-4.53h13.78l3.45,4.53l3.45,4.53l-3.45,4.53l-3.45,4.53H296.2
		l-3.45-4.53l-3.44-4.53L292.75,68.02z M313.98,67.77l-3.45-4.53l3.45-4.53l3.45-4.53h13.78l3.45,4.53l3.45,4.53l-3.45,4.53
		l-3.45,4.53h-13.78L313.98,67.77z M335.22,68.02l3.45-4.53h13.78l3.44,4.53l3.45,4.53l-3.45,4.53l-3.44,4.53h-13.78l-3.45-4.53
		l-3.45-4.53L335.22,68.02z M356.45,67.77L353,63.24l3.45-4.53l3.45-4.53h13.78l3.45,4.53l3.45,4.53l-3.45,4.53l-3.45,4.53H359.9
		L356.45,67.77z M377.69,68.02l3.45-4.53h13.78l3.45,4.53l3.45,4.53l-3.45,4.53l-3.45,4.53h-13.78l-3.45-4.53l-3.45-4.53
		L377.69,68.02z M398.92,67.77l-3.45-4.53l3.45-4.53l3.45-4.53h13.78l3.45,4.53l3.45,4.53l-3.45,4.53l-3.45,4.53h-13.78
		L398.92,67.77z M420.15,68.02l3.45-4.53h13.78l3.45,4.53l3.44,4.53l-3.44,4.53l-3.45,4.53H423.6l-3.45-4.53l-3.45-4.53
		L420.15,68.02z M423.6,63l-3.45-4.53l-3.45-4.53l3.45-4.53l3.45-4.53h13.78l3.45,4.53l3.44,4.53l-3.44,4.53L437.38,63H423.6z
		 M423.6,44.4l-3.45-4.53l-3.45-4.53l3.45-4.53l3.45-4.53h13.78l3.45,4.53l3.44,4.53l-3.44,4.53l-3.45,4.53H423.6z M423.6,25.8
		l-3.45-4.53l-3.45-4.53l3.45-4.53l3.45-4.53h13.78l3.45,4.53l3.44,4.53l-3.44,4.53l-3.45,4.53H423.6z M423.6,7.2l-3.45-4.53
		l-3.45-4.53l3.45-4.53l3.45-4.53h13.78l3.45,4.53l3.44,4.53l-3.44,4.53l-3.45,4.53H423.6z M423.6-11.4l-3.45-4.53l-3.45-4.53
		l3.45-4.53l3.45-4.53h13.78l3.45,4.53l3.44,4.53l-3.44,4.53l-3.45,4.53H423.6z M423.6-30l-3.45-4.53l-3.45-4.53l3.45-4.53
		l3.45-4.53h13.78l3.45,4.53l3.44,4.53l-3.44,4.53L437.38-30H423.6z M423.6-48.6l-3.45-4.53l-3.45-4.53l3.45-4.53l3.45-4.53h13.78
		l3.45,4.53l3.44,4.53l-3.44,4.53l-3.45,4.53H423.6z M423.6-67.2l-3.45-4.53l-3.45-4.53l3.45-4.53l3.45-4.53h13.78l3.45,4.53
		l3.44,4.53l-3.44,4.53l-3.45,4.53H423.6z M423.6-85.79l-3.45-4.53l-3.45-4.53l3.45-4.53l3.45-4.53h13.78l3.45,4.53l3.44,4.53
		l-3.44,4.53l-3.45,4.53H423.6z M419.59-90.08l3.45,4.53l-3.45,4.53l-3.45,4.53h-13.78l-3.45-4.53l-3.45-4.53l3.45-4.53l3.45-4.53
		h13.78L419.59-90.08z M398.36-90.32l-3.45,4.53h-13.78l-3.45-4.53l-3.45-4.53l3.45-4.53l3.45-4.53h13.78l3.45,4.53l3.45,4.53
		L398.36-90.32z M377.12-90.08l3.45,4.53l-3.45,4.53l-3.45,4.53H359.9l-3.45-4.53L353-85.55l3.45-4.53l3.45-4.53h13.78L377.12-90.08
		z M355.89-90.32l-3.44,4.53h-13.78l-3.45-4.53l-3.45-4.53l3.45-4.53l3.45-4.53h13.78l3.44,4.53l3.45,4.53L355.89-90.32z
		 M334.65-90.08l3.45,4.53l-3.45,4.53l-3.45,4.53h-13.78l-3.45-4.53l-3.45-4.53l3.45-4.53l3.45-4.53h13.78L334.65-90.08z
		 M313.42-90.32l-3.45,4.53h-13.78l-3.45-4.53l-3.44-4.53l3.44-4.53l3.45-4.53h13.78l6.89,9.05L313.42-90.32z M292.19-90.08
		l3.45,4.53l-3.45,4.53l-3.45,4.53h-13.78l-3.45-4.53l-3.45-4.53l3.45-4.53l3.45-4.53h13.78L292.19-90.08z M270.95-90.32l-3.45,4.53
		h-13.78l-6.89-9.05l6.89-9.05h13.78l6.89,9.05L270.95-90.32z M253.16-85.55l-6.89,9.05h-13.78l-3.45-4.53l-3.45-4.53l3.45-4.53
		l3.45-4.53h13.78L253.16-85.55z M228.48-90.32l-3.45,4.53h-13.78l-3.45-4.53l-3.45-4.53l3.45-4.53l3.45-4.53h13.78l3.45,4.53
		l3.45,4.53L228.48-90.32z M207.25-90.08l3.44,4.53l-3.44,4.53l-3.45,4.53h-13.78l-3.45-4.53l-3.45-4.53l3.45-4.53l3.45-4.53h13.78
		L207.25-90.08z M186.01-90.32l-3.45,4.53h-13.78l-3.45-4.53l-3.45-4.53l3.45-4.53l3.45-4.53h13.78l3.45,4.53l3.45,4.53
		L186.01-90.32z M164.78-90.08l3.45,4.53l-3.45,4.53l-3.45,4.53h-13.78l-3.44-4.53l-3.45-4.53l3.45-4.53l3.44-4.53h13.78
		L164.78-90.08z M143.54-90.32l-3.45,4.53h-13.78l-3.45-4.53l-3.45-4.53l3.45-4.53l3.45-4.53h13.78l3.45,4.53l3.45,4.53
		L143.54-90.32z M122.31-90.08l3.45,4.53l-3.45,4.53l-3.45,4.53h-13.78l-3.45-4.53l-3.45-4.53l3.45-4.53l3.45-4.53h13.78
		L122.31-90.08z M101.07-90.32l-3.45,4.53H83.85l-3.45-4.53l-3.45-4.53l3.45-4.53l3.45-4.53h13.78l3.45,4.53l3.45,4.53L101.07-90.32
		z M79.84-90.08l3.45,4.53l-3.45,4.53l-3.45,4.53H62.61l-3.45-4.53l-3.45-4.53l3.45-4.53l3.45-4.53h13.78L79.84-90.08z M58.61-90.32
		l-3.45,4.53H41.38l-3.45-4.53l-3.45-4.53l3.45-4.53l3.45-4.53h13.78l3.45,4.53l3.45,4.53L58.61-90.32z M55.16-85.3l3.45,4.53
		l3.45,4.53l-3.45,4.53l-3.45,4.53H41.38l-3.45-4.53l-3.45-4.53l3.45-4.53l3.45-4.53H55.16L55.16-85.3z M55.16-66.7l3.45,4.53
		l3.45,4.53l-3.45,4.53l-3.45,4.53H41.38l-3.45-4.53l-3.45-4.53l3.45-4.53l3.45-4.53H55.16z M55.16-48.1l3.45,4.53l3.45,4.53
		l-3.45,4.53L55.16-30H41.38l-3.45-4.53l-3.45-4.53l3.45-4.53l3.45-4.53L55.16-48.1L55.16-48.1z M55.16-29.5l3.45,4.53l3.45,4.53
		l-3.45,4.53l-3.45,4.53H41.38l-3.45-4.53l-3.45-4.53l3.45-4.53l3.45-4.53H55.16z M55.16-10.9l3.45,4.53l3.45,4.53l-3.45,4.53
		L55.16,7.2H41.38l-3.45-4.53l-3.45-4.53l3.45-4.53l3.45-4.53h13.78V-10.9z M55.16,7.69l3.45,4.53l3.45,4.53l-3.45,4.53l-3.45,4.53
		H41.38l-3.45-4.53l-3.45-4.53l3.45-4.53l3.45-4.53C41.38,7.69,55.16,7.69,55.16,7.69z M55.16,26.29l3.45,4.53l3.45,4.53l-3.45,4.53
		l-3.45,4.53H41.38l-3.45-4.53l-3.45-4.53l3.45-4.53l3.45-4.53H55.16z M55.16,44.89l3.45,4.53l3.45,4.53l-3.45,4.53L55.16,63H41.38
		l-3.45-4.53l-3.45-4.53l3.45-4.53l3.45-4.53L55.16,44.89L55.16,44.89z M55.16,63.49l3.45,4.53l3.45,4.53l-3.45,4.53l-3.45,4.53
		H41.38l-3.45-4.53l-3.45-4.53l3.45-4.53l3.45-4.53C41.38,63.49,55.16,63.49,55.16,63.49z M55.16,82.09l3.45,4.53l3.45,4.53
		l-3.45,4.53l-3.45,4.53H41.38l-3.45-4.53l-3.45-4.53l3.45-4.53l3.45-4.53H55.16z M59.17,86.37l-3.45-4.53l3.45-4.53l3.45-4.53H76.4
		l3.45,4.53l3.45,4.53l-3.45,4.53L76.4,90.9H62.61L59.17,86.37z M80.4,86.62l3.45-4.53h13.78l3.45,4.53l3.45,4.53l-3.45,4.53
		l-3.45,4.53H83.85l-3.45-4.53l-3.45-4.53L80.4,86.62z M101.64,86.37l-3.45-4.53l3.45-4.53l3.45-4.53h13.78l3.45,4.53l3.45,4.53
		l-3.45,4.53l-3.45,4.53h-13.78L101.64,86.37z M122.87,86.62l3.45-4.53h13.78l3.45,4.53l3.45,4.53l-3.45,4.53l-3.45,4.53h-13.78
		l-3.45-4.53l-3.45-4.53L122.87,86.62z M144.11,86.37l-3.45-4.53l3.45-4.53l3.44-4.53h13.78l3.45,4.53l3.45,4.53l-3.45,4.53
		l-3.45,4.53h-13.78L144.11,86.37z M165.34,86.62l3.45-4.53h13.78l3.45,4.53l3.45,4.53l-3.45,4.53l-3.45,4.53h-13.78l-3.45-4.53
		l-3.45-4.53L165.34,86.62z M186.58,86.37l-3.45-4.53l3.45-4.53l3.45-4.53h13.78l3.45,4.53l3.44,4.53l-3.44,4.53l-3.45,4.53h-13.78
		L186.58,86.37z M207.81,86.62l3.45-4.53h13.78l3.45,4.53l3.45,4.53l-3.45,4.53l-3.45,4.53h-13.78l-3.45-4.53l-3.45-4.53
		L207.81,86.62z M229.05,86.37l-3.45-4.53l3.45-4.53l3.45-4.53h13.78l6.89,9.05l-6.89,9.05H232.5L229.05,86.37z M253.72,82.09h13.78
		l3.45,4.53l3.45,4.53l-6.89,9.05h-13.78l-6.89-9.05L253.72,82.09z M271.51,86.37l-3.45-4.53l3.45-4.53l3.45-4.53h13.78l3.45,4.53
		l3.45,4.53l-3.45,4.53l-3.45,4.53h-13.78L271.51,86.37z M292.75,86.62l3.45-4.53h13.78l3.45,4.53l3.45,4.53l-6.89,9.05h-13.78
		l-3.45-4.53l-3.44-4.53L292.75,86.62z M313.98,86.37l-3.45-4.53l3.45-4.53l3.45-4.53h13.78l3.45,4.53l3.45,4.53l-3.45,4.53
		l-3.45,4.53h-13.78L313.98,86.37z M335.22,86.62l3.45-4.53h13.78l3.44,4.53l3.45,4.53l-3.45,4.53l-3.44,4.53h-13.78l-3.45-4.53
		l-3.45-4.53L335.22,86.62z M356.45,86.37L353,81.84l3.45-4.53l3.45-4.53h13.78l3.45,4.53l3.45,4.53l-3.45,4.53l-3.45,4.53H359.9
		L356.45,86.37z M377.69,86.62l3.45-4.53h13.78l3.45,4.53l3.45,4.53l-3.45,4.53l-3.45,4.53h-13.78l-3.45-4.53l-3.45-4.53
		L377.69,86.62z M398.92,86.37l-3.45-4.53l3.45-4.53l3.45-4.53h13.78l3.45,4.53l3.45,4.53l-3.45,4.53l-3.45,4.53h-13.78
		L398.92,86.37z M420.15,86.62l3.45-4.53h13.78l3.45,4.53l3.44,4.53l-3.44,4.53l-3.45,4.53H423.6l-3.45-4.53l-3.45-4.53
		L420.15,86.62z M441.39,86.37l-3.44-4.53l3.44-4.53l3.45-4.53h13.78l3.45,4.53l3.45,4.53l-3.45,4.53l-3.45,4.53h-13.78
		L441.39,86.37z M444.83,72.3l-3.45-4.53l-3.44-4.53l3.44-4.53l3.45-4.53h13.78l3.45,4.53l3.45,4.53l-3.45,4.53l-3.45,4.53H444.83z
		 M444.83,53.7l-3.45-4.53l-3.44-4.53l3.44-4.53l3.45-4.53h13.78l3.45,4.53l3.45,4.53l-3.45,4.53l-3.45,4.53H444.83z M444.83,35.1
		l-3.45-4.53l-3.44-4.53l3.44-4.53l3.45-4.53h13.78l3.45,4.53l3.45,4.53l-3.45,4.53l-3.45,4.53H444.83z M444.83,16.5l-3.45-4.53
		l-3.44-4.53l3.44-4.53l3.45-4.53h13.78l3.45,4.53l3.45,4.53l-3.45,4.53l-3.45,4.53H444.83z M444.83-2.1l-3.45-4.53l-3.44-4.53
		l3.44-4.53l3.45-4.53h13.78l3.45,4.53l3.45,4.53l-3.45,4.53l-3.45,4.53C458.61-2.1,444.83-2.1,444.83-2.1z M444.83-20.7l-3.45-4.53
		l-3.44-4.53l3.44-4.53l3.45-4.53h13.78l3.45,4.53l3.45,4.53l-3.45,4.53l-3.45,4.53C458.61-20.7,444.83-20.7,444.83-20.7z
		 M444.83-39.3l-3.45-4.53l-3.44-4.53l3.44-4.53l3.45-4.53h13.78l3.45,4.53l3.45,4.53l-3.45,4.53l-3.45,4.53H444.83z M444.83-57.9
		l-3.45-4.53l-3.44-4.53l3.44-4.53l3.45-4.53h13.78l3.45,4.53l3.45,4.53l-3.45,4.53l-3.45,4.53H444.83z M444.83-76.5l-3.45-4.53
		l-3.44-4.53l3.44-4.53l3.45-4.53h13.78l3.45,4.53l3.45,4.53l-3.45,4.53l-3.45,4.53H444.83z M420.15-117.97l3.45-4.53h13.78
		l3.45,4.53l3.44,4.53l-3.44,4.53l-3.45,4.53H423.6l-3.45-4.53l-3.45-4.53L420.15-117.97z M416.15-113.2l3.45,4.53l3.45,4.53
		l-3.45,4.53l-3.45,4.53h-13.78l-3.45-4.53l-3.45-4.53l3.45-4.53l3.45-4.53H416.15z M377.69-117.97l3.45-4.53h13.78l3.45,4.53
		l3.45,4.53l-3.45,4.53l-3.45,4.53h-13.78l-3.45-4.53l-3.45-4.53L377.69-117.97z M373.68-113.2l3.45,4.53l3.45,4.53l-3.45,4.53
		l-3.45,4.53H359.9l-3.45-4.53l-3.45-4.53l3.45-4.53l3.45-4.53H373.68z M335.22-117.97l3.45-4.53h13.78l3.44,4.53l3.45,4.53
		l-3.45,4.53l-3.44,4.53h-13.78l-3.45-4.53l-3.45-4.53L335.22-117.97z M331.21-113.2l3.45,4.53l3.45,4.53l-3.45,4.53l-3.45,4.53
		h-13.78l-3.45-4.53l-3.45-4.53l3.45-4.53l3.45-4.53H331.21z M292.75-117.97l3.45-4.53h13.78l3.45,4.53l3.45,4.53l-3.45,4.53
		l-3.45,4.53H296.2l-3.45-4.53l-3.44-4.53L292.75-117.97z M288.74-113.2l3.45,4.53l3.45,4.53l-3.45,4.53l-3.45,4.53h-13.78
		l-3.45-4.53l-3.45-4.53l3.45-4.53l3.45-4.53H288.74z M253.72-122.5h13.78l3.45,4.53l3.45,4.53l-3.45,4.53l-3.45,4.53h-13.78
		l-6.89-9.05L253.72-122.5z M246.27-113.2l6.89,9.05l-6.89,9.05h-13.78l-3.45-4.53l-3.45-4.53l3.45-4.53l3.45-4.53
		C232.49-113.2,246.27-113.2,246.27-113.2z M207.81-117.97l3.45-4.53h13.78l3.45,4.53l3.45,4.53l-3.45,4.53l-3.45,4.53h-13.78
		l-3.45-4.53l-3.45-4.53L207.81-117.97z M203.8-113.2l3.45,4.53l3.44,4.53l-3.44,4.53l-3.45,4.53h-13.78l-3.45-4.53l-3.45-4.53
		l3.45-4.53l3.45-4.53H203.8z M165.34-117.97l3.45-4.53h13.78l3.45,4.53l3.45,4.53l-3.45,4.53l-3.45,4.53h-13.78l-3.45-4.53
		l-3.45-4.53L165.34-117.97z M161.33-113.2l3.45,4.53l3.45,4.53l-3.45,4.53l-3.45,4.53h-13.78l-3.44-4.53l-3.45-4.53l3.45-4.53
		l3.44-4.53H161.33z M122.87-117.97l3.45-4.53h13.78l3.45,4.53l3.45,4.53l-3.45,4.53l-3.45,4.53h-13.78l-3.45-4.53l-3.45-4.53
		L122.87-117.97z M118.86-113.2l3.45,4.53l3.45,4.53l-3.45,4.53l-3.45,4.53h-13.78l-3.45-4.53l-3.45-4.53l3.45-4.53l3.45-4.53
		H118.86z M80.4-117.97l3.45-4.53h13.78l3.45,4.53l3.45,4.53l-3.45,4.53l-3.45,4.53H83.85l-3.45-4.53l-3.45-4.53L80.4-117.97z
		 M76.39-113.2l3.45,4.53l3.45,4.53l-3.45,4.53l-3.45,4.53H62.61l-3.45-4.53l-3.45-4.53l3.45-4.53l3.45-4.53H76.39z M37.93-117.97
		l3.45-4.53h13.78l3.45,4.53l3.45,4.53l-3.45,4.53l-3.45,4.53H41.38l-3.45-4.53l-3.45-4.53L37.93-117.97z M16.7-99.62l-3.45-4.53
		l3.45-4.53l3.45-4.53h13.78l3.45,4.53l3.45,4.53l-3.45,4.53l-3.45,4.53H20.15L16.7-99.62z M16.7-81.02l-3.45-4.53l3.45-4.53
		l3.45-4.53h13.78l3.45,4.53l3.45,4.53l-3.45,4.53l-3.45,4.53H20.15L16.7-81.02z M16.7-62.42l-3.45-4.53l3.45-4.53L20.15-76h13.78
		l3.45,4.53l3.45,4.53l-3.45,4.53l-3.45,4.53H20.15L16.7-62.42z M16.7-43.82l-3.45-4.53l3.45-4.53l3.45-4.53h13.78l3.45,4.53
		l3.45,4.53l-3.45,4.53l-3.45,4.53H20.15L16.7-43.82z M16.7-25.22l-3.45-4.53l3.45-4.53l3.45-4.53h13.78l3.45,4.53l3.45,4.53
		l-3.45,4.53l-3.45,4.53H20.15L16.7-25.22z M16.7-6.63l-3.45-4.53l3.45-4.53l3.45-4.53h13.78l3.45,4.53l3.45,4.53l-3.45,4.53
		L33.92-2.1H20.15L16.7-6.63z M16.7,11.97l-3.45-4.53l3.45-4.53l3.45-4.53h13.78l3.45,4.53l3.45,4.53l-3.45,4.53l-3.45,4.53H20.15
		L16.7,11.97z M16.7,30.57l-3.45-4.53l3.45-4.53l3.45-4.53h13.78l3.45,4.53l3.45,4.53l-3.45,4.53l-3.45,4.53H20.15L16.7,30.57z
		 M16.7,49.17l-3.45-4.53l3.45-4.53l3.45-4.53h13.78l3.45,4.53l3.45,4.53l-3.45,4.53l-3.45,4.53H20.15L16.7,49.17z M16.7,67.77
		l-3.45-4.53l3.45-4.53l3.45-4.53h13.78l3.45,4.53l3.45,4.53l-3.45,4.53l-3.45,4.53H20.15L16.7,67.77z M16.7,86.37l-3.45-4.53
		l3.45-4.53l3.45-4.53h13.78l3.45,4.53l3.45,4.53l-3.45,4.53l-3.45,4.53H20.15L16.7,86.37z M20.15,109.5l-3.45-4.53l-3.45-4.53
		l3.45-4.53l3.45-4.53h13.78l3.45,4.53l3.45,4.53l-3.45,4.53l-3.45,4.53H20.15z M58.61,114.27l-3.45,4.53H41.38l-3.45-4.53
		l-3.45-4.53l3.45-4.53l3.45-4.53h13.78l3.45,4.53l3.45,4.53L58.61,114.27z M62.61,109.5l-3.45-4.53l-3.45-4.53l3.45-4.53l3.45-4.53
		h13.78l3.45,4.53l3.45,4.53l-3.45,4.53l-3.45,4.53H62.61z M101.07,114.27l-3.45,4.53H83.85l-3.45-4.53l-3.45-4.53l3.45-4.53
		l3.45-4.53h13.78l3.45,4.53l3.45,4.53L101.07,114.27z M105.08,109.5l-3.45-4.53l-3.45-4.53l3.45-4.53l3.45-4.53h13.78l3.45,4.53
		l3.45,4.53l-3.45,4.53l-3.45,4.53H105.08z M143.54,114.27l-3.45,4.53h-13.78l-3.45-4.53l-3.45-4.53l3.45-4.53l3.45-4.53h13.78
		l3.45,4.53l3.45,4.53L143.54,114.27z M147.55,109.5l-3.44-4.53l-3.45-4.53l3.45-4.53l3.44-4.53h13.78l3.45,4.53l3.45,4.53
		l-3.45,4.53l-3.45,4.53H147.55z M186.01,114.27l-3.45,4.53h-13.78l-3.45-4.53l-3.45-4.53l3.45-4.53l3.45-4.53h13.78l3.45,4.53
		l3.45,4.53L186.01,114.27z M190.02,109.5l-3.45-4.53l-3.45-4.53l3.45-4.53l3.45-4.53h13.78l3.45,4.53l3.44,4.53l-3.44,4.53
		l-3.45,4.53H190.02z M228.48,114.27l-3.45,4.53h-13.78l-3.45-4.53l-3.45-4.53l3.45-4.53l3.45-4.53h13.78l3.45,4.53l3.45,4.53
		L228.48,114.27z M232.49,109.5l-3.45-4.53l-3.45-4.53l3.45-4.53l3.45-4.53h13.78l6.89,9.05l-6.89,9.05h-13.78V109.5z
		 M270.95,114.27l-3.45,4.53h-13.78l-6.89-9.05l6.89-9.05h13.78l3.45,4.53l3.45,4.53L270.95,114.27z M274.96,109.5l-3.45-4.53
		l-3.45-4.53l3.45-4.53l3.45-4.53h13.78l3.45,4.53l3.45,4.53l-3.45,4.53l-3.45,4.53H274.96z M313.42,114.27l-3.45,4.53h-13.78
		l-3.45-4.53l-3.44-4.53l3.44-4.53l3.45-4.53h13.78l3.45,4.53l3.45,4.53L313.42,114.27z M317.43,109.5l-3.45-4.53l-3.45-4.53
		l3.45-4.53l3.45-4.53h13.78l3.45,4.53l3.45,4.53l-3.45,4.53l-3.45,4.53H317.43z M355.89,114.27l-3.44,4.53h-13.78l-3.45-4.53
		l-3.45-4.53l3.45-4.53l3.45-4.53h13.78l3.44,4.53l3.45,4.53L355.89,114.27z M359.9,109.5l-3.45-4.53l-3.45-4.53l3.45-4.53
		l3.45-4.53h13.78l3.45,4.53l3.45,4.53l-3.45,4.53l-3.45,4.53H359.9z M398.36,114.27l-3.45,4.53h-13.78l-3.45-4.53l-3.45-4.53
		l3.45-4.53l3.45-4.53h13.78l3.45,4.53l3.45,4.53L398.36,114.27z M402.37,109.5l-3.45-4.53l-3.45-4.53l3.45-4.53l3.45-4.53h13.78
		l3.45,4.53l3.45,4.53l-3.45,4.53l-3.45,4.53H402.37z M440.83,114.27l-3.45,4.53H423.6l-3.45-4.53l-3.45-4.53l3.45-4.53l3.45-4.53
		h13.78l3.45,4.53l3.44,4.53L440.83,114.27z M444.83,109.5l-3.45-4.53l-3.44-4.53l3.44-4.53l3.45-4.53h13.78l3.45,4.53l3.45,4.53
		l-3.45,4.53l-3.45,4.53H444.83z M483.29,105.22l3.45,4.53l-3.45,4.53l-3.45,4.53h-13.78l-3.45-4.53l-3.45-4.53l3.45-4.53l3.45-4.53
		h13.78L483.29,105.22z M483.29,86.62l3.45,4.53l-3.45,4.53l-3.45,4.53h-13.78l-3.45-4.53l-3.45-4.53l3.45-4.53l3.45-4.53h13.78
		L483.29,86.62z M483.29,68.02l3.45,4.53l-3.45,4.53l-3.45,4.53h-13.78l-3.45-4.53l-3.45-4.53l3.45-4.53l3.45-4.53h13.78
		L483.29,68.02z M483.29,49.42l3.45,4.53l-3.45,4.53L479.85,63h-13.78l-3.45-4.53l-3.45-4.53l3.45-4.53l3.45-4.53h13.78
		L483.29,49.42z M483.29,30.82l3.45,4.53l-3.45,4.53l-3.45,4.53h-13.78l-3.45-4.53l-3.45-4.53l3.45-4.53l3.45-4.53h13.78
		L483.29,30.82z M483.29,12.22l3.45,4.53l-3.45,4.53l-3.45,4.53h-13.78l-3.45-4.53l-3.45-4.53l3.45-4.53l3.45-4.53h13.78
		L483.29,12.22z M483.29-6.38l3.45,4.53l-3.45,4.53l-3.45,4.53h-13.78l-3.45-4.53l-3.45-4.53l3.45-4.53l3.45-4.53h13.78L483.29-6.38
		z M483.29-24.98l3.45,4.53l-3.45,4.53l-3.45,4.53h-13.78l-3.45-4.53l-3.45-4.53l3.45-4.53l3.45-4.53h13.78L483.29-24.98z
		 M483.29-43.58l3.45,4.53l-3.45,4.53L479.85-30h-13.78l-3.45-4.53l-3.45-4.53l3.45-4.53l3.45-4.53h13.78L483.29-43.58z
		 M483.29-62.18l3.45,4.53l-3.45,4.53l-3.45,4.53h-13.78l-3.45-4.53l-3.45-4.53l3.45-4.53l3.45-4.53h13.78L483.29-62.18z
		 M483.29-80.77l3.45,4.53l-3.45,4.53l-3.45,4.53h-13.78l-3.45-4.53l-3.45-4.53l3.45-4.53l3.45-4.53h13.78L483.29-80.77z
		 M483.29-99.37l3.45,4.53l-3.45,4.53l-3.45,4.53h-13.78l-3.45-4.53l-3.45-4.53l3.45-4.53l3.45-4.53h13.78L483.29-99.37z
		 M479.85-104.39h-13.78l-3.45-4.53l-3.45-4.53l3.45-4.53l3.45-4.53h13.78l3.45,4.53l3.45,4.53l-3.45,4.53L479.85-104.39z"/>
</g>
</svg>
