<svg width="412" height="602" viewBox="0 0 412 602" fill="none" xmlns="http://www.w3.org/2000/svg">
<mask id="mask0_39_640" style="mask-type:alpha" maskUnits="userSpaceOnUse" x="0" y="0" width="412" height="602">
<rect x="0.5" y="0.5" width="411" height="601" fill="url(#paint0_linear_39_640)" stroke="url(#paint1_linear_39_640)"/>
</mask>
<g mask="url(#mask0_39_640)">
<rect x="-513.927" y="96.1719" width="752.501" height="18.6203" transform="rotate(-45 -513.927 96.1719)" fill="url(#paint2_linear_39_640)" stroke="url(#paint3_linear_39_640)"/>
<rect x="-221.038" y="389.061" width="752.501" height="18.6203" transform="rotate(-45 -221.038 389.061)" fill="url(#paint4_linear_39_640)" stroke="url(#paint5_linear_39_640)"/>
<rect x="71.1436" y="681.949" width="753.501" height="19.6203" transform="rotate(-45 71.1436 681.949)" fill="url(#paint6_linear_39_640)"/>
<rect x="364.739" y="974.838" width="752.501" height="18.6203" transform="rotate(-45 364.739 974.838)" fill="url(#paint7_linear_39_640)" stroke="url(#paint8_linear_39_640)"/>
<rect x="-484.638" y="125.461" width="752.501" height="18.6203" transform="rotate(-45 -484.638 125.461)" fill="url(#paint9_linear_39_640)" stroke="url(#paint10_linear_39_640)"/>
<rect x="-191.749" y="418.349" width="752.501" height="18.6203" transform="rotate(-45 -191.749 418.349)" fill="url(#paint11_linear_39_640)" stroke="url(#paint12_linear_39_640)"/>
<rect x="100.432" y="711.238" width="753.501" height="19.6203" transform="rotate(-45 100.432 711.238)" fill="url(#paint13_linear_39_640)"/>
<rect x="-455.349" y="154.75" width="752.501" height="18.6203" transform="rotate(-45 -455.349 154.75)" fill="url(#paint14_linear_39_640)" stroke="url(#paint15_linear_39_640)"/>
<rect x="-162.46" y="447.638" width="752.501" height="18.6203" transform="rotate(-45 -162.46 447.638)" fill="url(#paint16_linear_39_640)" stroke="url(#paint17_linear_39_640)"/>
<rect x="129.721" y="740.527" width="753.501" height="19.6203" transform="rotate(-45 129.721 740.527)" fill="url(#paint18_linear_39_640)"/>
<rect x="-426.06" y="184.038" width="752.501" height="18.6203" transform="rotate(-45 -426.06 184.038)" fill="url(#paint19_linear_39_640)" stroke="url(#paint20_linear_39_640)"/>
<rect x="-133.172" y="476.927" width="752.501" height="18.6203" transform="rotate(-45 -133.172 476.927)" fill="url(#paint21_linear_39_640)" stroke="url(#paint22_linear_39_640)"/>
<rect x="159.01" y="769.815" width="753.501" height="19.6203" transform="rotate(-45 159.01 769.815)" fill="url(#paint23_linear_39_640)"/>
<rect x="-396.771" y="213.327" width="752.501" height="18.6203" transform="rotate(-45 -396.771 213.327)" fill="url(#paint24_linear_39_640)" stroke="url(#paint25_linear_39_640)"/>
<rect x="-103.883" y="506.216" width="752.501" height="18.6203" transform="rotate(-45 -103.883 506.216)" fill="url(#paint26_linear_39_640)" stroke="url(#paint27_linear_39_640)"/>
<rect x="188.299" y="799.104" width="753.501" height="19.6203" transform="rotate(-45 188.299 799.104)" fill="url(#paint28_linear_39_640)"/>
<rect x="-367.482" y="242.616" width="752.501" height="18.6203" transform="rotate(-45 -367.482 242.616)" fill="url(#paint29_linear_39_640)" stroke="url(#paint30_linear_39_640)"/>
<rect x="-74.5942" y="535.505" width="752.501" height="18.6203" transform="rotate(-45 -74.5942 535.505)" fill="url(#paint31_linear_39_640)" stroke="url(#paint32_linear_39_640)"/>
<rect x="218.295" y="828.393" width="752.501" height="18.6203" transform="rotate(-45 218.295 828.393)" fill="url(#paint33_linear_39_640)" stroke="url(#paint34_linear_39_640)"/>
<rect x="-338.194" y="271.905" width="752.501" height="18.6203" transform="rotate(-45 -338.194 271.905)" fill="url(#paint35_linear_39_640)" stroke="url(#paint36_linear_39_640)"/>
<rect x="-45.3046" y="564.793" width="752.501" height="18.6203" transform="rotate(-45 -45.3046 564.793)" fill="url(#paint37_linear_39_640)" stroke="url(#paint38_linear_39_640)"/>
<rect x="247.584" y="857.682" width="752.501" height="18.6203" transform="rotate(-45 247.584 857.682)" fill="url(#paint39_linear_39_640)" stroke="url(#paint40_linear_39_640)"/>
<rect x="-308.905" y="301.194" width="752.501" height="18.6203" transform="rotate(-45 -308.905 301.194)" fill="url(#paint41_linear_39_640)" stroke="url(#paint42_linear_39_640)"/>
<rect x="-16.7227" y="594.083" width="753.501" height="19.6203" transform="rotate(-45 -16.7227 594.083)" fill="url(#paint43_linear_39_640)"/>
<rect x="276.873" y="886.971" width="752.501" height="18.6203" transform="rotate(-45 276.873 886.971)" fill="url(#paint44_linear_39_640)" stroke="url(#paint45_linear_39_640)"/>
<rect x="-279.616" y="330.483" width="752.501" height="18.6203" transform="rotate(-45 -279.616 330.483)" fill="url(#paint46_linear_39_640)" stroke="url(#paint47_linear_39_640)"/>
<rect x="12.5654" y="623.372" width="753.501" height="19.6203" transform="rotate(-45 12.5654 623.372)" fill="url(#paint48_linear_39_640)"/>
<rect x="306.162" y="916.26" width="752.501" height="18.6203" transform="rotate(-45 306.162 916.26)" fill="url(#paint49_linear_39_640)" stroke="url(#paint50_linear_39_640)"/>
<rect x="-250.327" y="359.771" width="752.501" height="18.6203" transform="rotate(-45 -250.327 359.771)" fill="url(#paint51_linear_39_640)" stroke="url(#paint52_linear_39_640)"/>
<rect x="41.8545" y="652.66" width="753.501" height="19.6203" transform="rotate(-45 41.8545 652.66)" fill="url(#paint53_linear_39_640)"/>
<rect x="335.45" y="945.549" width="752.501" height="18.6203" transform="rotate(-45 335.45 945.549)" fill="url(#paint54_linear_39_640)" stroke="url(#paint55_linear_39_640)"/>
</g>
<defs>
<linearGradient id="paint0_linear_39_640" x1="400.5" y1="296" x2="-44.5" y2="288.5" gradientUnits="userSpaceOnUse">
<stop stop-color="#72443A"/>
<stop offset="1" stop-color="#333E25"/>
</linearGradient>
<linearGradient id="paint1_linear_39_640" x1="3.79558e-06" y1="4.5" x2="35.5" y2="43.5" gradientUnits="userSpaceOnUse">
<stop stop-color="white"/>
<stop offset="1" stop-color="white" stop-opacity="0"/>
</linearGradient>
<linearGradient id="paint2_linear_39_640" x1="217.835" y1="105.819" x2="-211.887" y2="-300.591" gradientUnits="userSpaceOnUse">
<stop stop-color="#72443A"/>
<stop offset="1" stop-color="#333E25"/>
</linearGradient>
<linearGradient id="paint3_linear_39_640" x1="-514.634" y1="96.3185" x2="-514.596" y2="98.6422" gradientUnits="userSpaceOnUse">
<stop stop-color="white"/>
<stop offset="1" stop-color="white" stop-opacity="0"/>
</linearGradient>
<linearGradient id="paint4_linear_39_640" x1="510.723" y1="398.708" x2="81.0013" y2="-7.70248" gradientUnits="userSpaceOnUse">
<stop stop-color="#72443A"/>
<stop offset="1" stop-color="#333E25"/>
</linearGradient>
<linearGradient id="paint5_linear_39_640" x1="-221.745" y1="389.207" x2="-221.707" y2="391.531" gradientUnits="userSpaceOnUse">
<stop stop-color="white"/>
<stop offset="1" stop-color="white" stop-opacity="0"/>
</linearGradient>
<linearGradient id="paint6_linear_39_640" x1="803.612" y1="691.596" x2="373.89" y2="285.186" gradientUnits="userSpaceOnUse">
<stop stop-color="#72443A"/>
<stop offset="1" stop-color="#333E25"/>
</linearGradient>
<linearGradient id="paint7_linear_39_640" x1="1096.5" y1="984.485" x2="666.778" y2="578.075" gradientUnits="userSpaceOnUse">
<stop stop-color="#72443A"/>
<stop offset="1" stop-color="#333E25"/>
</linearGradient>
<linearGradient id="paint8_linear_39_640" x1="364.032" y1="974.985" x2="364.069" y2="977.308" gradientUnits="userSpaceOnUse">
<stop stop-color="white"/>
<stop offset="1" stop-color="white" stop-opacity="0"/>
</linearGradient>
<linearGradient id="paint9_linear_39_640" x1="247.124" y1="135.108" x2="-182.598" y2="-271.302" gradientUnits="userSpaceOnUse">
<stop stop-color="#72443A"/>
<stop offset="1" stop-color="#333E25"/>
</linearGradient>
<linearGradient id="paint10_linear_39_640" x1="-485.345" y1="125.607" x2="-485.307" y2="127.931" gradientUnits="userSpaceOnUse">
<stop stop-color="white"/>
<stop offset="1" stop-color="white" stop-opacity="0"/>
</linearGradient>
<linearGradient id="paint11_linear_39_640" x1="540.012" y1="427.996" x2="110.29" y2="21.5861" gradientUnits="userSpaceOnUse">
<stop stop-color="#72443A"/>
<stop offset="1" stop-color="#333E25"/>
</linearGradient>
<linearGradient id="paint12_linear_39_640" x1="-192.456" y1="418.496" x2="-192.418" y2="420.819" gradientUnits="userSpaceOnUse">
<stop stop-color="white"/>
<stop offset="1" stop-color="white" stop-opacity="0"/>
</linearGradient>
<linearGradient id="paint13_linear_39_640" x1="832.901" y1="720.885" x2="403.178" y2="314.475" gradientUnits="userSpaceOnUse">
<stop stop-color="#72443A"/>
<stop offset="1" stop-color="#333E25"/>
</linearGradient>
<linearGradient id="paint14_linear_39_640" x1="276.412" y1="164.397" x2="-153.31" y2="-242.013" gradientUnits="userSpaceOnUse">
<stop stop-color="#72443A"/>
<stop offset="1" stop-color="#333E25"/>
</linearGradient>
<linearGradient id="paint15_linear_39_640" x1="-456.056" y1="154.896" x2="-456.019" y2="157.22" gradientUnits="userSpaceOnUse">
<stop stop-color="white"/>
<stop offset="1" stop-color="white" stop-opacity="0"/>
</linearGradient>
<linearGradient id="paint16_linear_39_640" x1="569.301" y1="457.285" x2="139.579" y2="50.8752" gradientUnits="userSpaceOnUse">
<stop stop-color="#72443A"/>
<stop offset="1" stop-color="#333E25"/>
</linearGradient>
<linearGradient id="paint17_linear_39_640" x1="-163.167" y1="447.785" x2="-163.13" y2="450.108" gradientUnits="userSpaceOnUse">
<stop stop-color="white"/>
<stop offset="1" stop-color="white" stop-opacity="0"/>
</linearGradient>
<linearGradient id="paint18_linear_39_640" x1="862.189" y1="750.174" x2="432.467" y2="343.764" gradientUnits="userSpaceOnUse">
<stop stop-color="#72443A"/>
<stop offset="1" stop-color="#333E25"/>
</linearGradient>
<linearGradient id="paint19_linear_39_640" x1="305.701" y1="193.686" x2="-124.021" y2="-212.725" gradientUnits="userSpaceOnUse">
<stop stop-color="#72443A"/>
<stop offset="1" stop-color="#333E25"/>
</linearGradient>
<linearGradient id="paint20_linear_39_640" x1="-426.767" y1="184.185" x2="-426.729" y2="186.509" gradientUnits="userSpaceOnUse">
<stop stop-color="white"/>
<stop offset="1" stop-color="white" stop-opacity="0"/>
</linearGradient>
<linearGradient id="paint21_linear_39_640" x1="598.59" y1="486.574" x2="168.867" y2="80.164" gradientUnits="userSpaceOnUse">
<stop stop-color="#72443A"/>
<stop offset="1" stop-color="#333E25"/>
</linearGradient>
<linearGradient id="paint22_linear_39_640" x1="-133.879" y1="477.074" x2="-133.841" y2="479.397" gradientUnits="userSpaceOnUse">
<stop stop-color="white"/>
<stop offset="1" stop-color="white" stop-opacity="0"/>
</linearGradient>
<linearGradient id="paint23_linear_39_640" x1="891.478" y1="779.463" x2="461.756" y2="373.052" gradientUnits="userSpaceOnUse">
<stop stop-color="#72443A"/>
<stop offset="1" stop-color="#333E25"/>
</linearGradient>
<linearGradient id="paint24_linear_39_640" x1="334.991" y1="222.974" x2="-94.7317" y2="-183.436" gradientUnits="userSpaceOnUse">
<stop stop-color="#72443A"/>
<stop offset="1" stop-color="#333E25"/>
</linearGradient>
<linearGradient id="paint25_linear_39_640" x1="-397.478" y1="213.474" x2="-397.44" y2="215.797" gradientUnits="userSpaceOnUse">
<stop stop-color="white"/>
<stop offset="1" stop-color="white" stop-opacity="0"/>
</linearGradient>
<linearGradient id="paint26_linear_39_640" x1="627.878" y1="515.863" x2="198.156" y2="109.453" gradientUnits="userSpaceOnUse">
<stop stop-color="#72443A"/>
<stop offset="1" stop-color="#333E25"/>
</linearGradient>
<linearGradient id="paint27_linear_39_640" x1="-104.59" y1="506.363" x2="-104.553" y2="508.686" gradientUnits="userSpaceOnUse">
<stop stop-color="white"/>
<stop offset="1" stop-color="white" stop-opacity="0"/>
</linearGradient>
<linearGradient id="paint28_linear_39_640" x1="920.767" y1="808.752" x2="491.045" y2="402.341" gradientUnits="userSpaceOnUse">
<stop stop-color="#72443A"/>
<stop offset="1" stop-color="#333E25"/>
</linearGradient>
<linearGradient id="paint29_linear_39_640" x1="364.279" y1="252.263" x2="-65.4431" y2="-154.147" gradientUnits="userSpaceOnUse">
<stop stop-color="#72443A"/>
<stop offset="1" stop-color="#333E25"/>
</linearGradient>
<linearGradient id="paint30_linear_39_640" x1="-368.189" y1="242.763" x2="-368.152" y2="245.087" gradientUnits="userSpaceOnUse">
<stop stop-color="white"/>
<stop offset="1" stop-color="white" stop-opacity="0"/>
</linearGradient>
<linearGradient id="paint31_linear_39_640" x1="657.167" y1="545.152" x2="227.445" y2="138.742" gradientUnits="userSpaceOnUse">
<stop stop-color="#72443A"/>
<stop offset="1" stop-color="#333E25"/>
</linearGradient>
<linearGradient id="paint32_linear_39_640" x1="-75.3013" y1="535.652" x2="-75.2636" y2="537.975" gradientUnits="userSpaceOnUse">
<stop stop-color="white"/>
<stop offset="1" stop-color="white" stop-opacity="0"/>
</linearGradient>
<linearGradient id="paint33_linear_39_640" x1="950.056" y1="838.04" x2="520.334" y2="431.63" gradientUnits="userSpaceOnUse">
<stop stop-color="#72443A"/>
<stop offset="1" stop-color="#333E25"/>
</linearGradient>
<linearGradient id="paint34_linear_39_640" x1="217.588" y1="828.54" x2="217.626" y2="830.863" gradientUnits="userSpaceOnUse">
<stop stop-color="white"/>
<stop offset="1" stop-color="white" stop-opacity="0"/>
</linearGradient>
<linearGradient id="paint35_linear_39_640" x1="393.568" y1="281.552" x2="-36.1545" y2="-124.858" gradientUnits="userSpaceOnUse">
<stop stop-color="#72443A"/>
<stop offset="1" stop-color="#333E25"/>
</linearGradient>
<linearGradient id="paint36_linear_39_640" x1="-338.901" y1="272.052" x2="-338.863" y2="274.375" gradientUnits="userSpaceOnUse">
<stop stop-color="white"/>
<stop offset="1" stop-color="white" stop-opacity="0"/>
</linearGradient>
<linearGradient id="paint37_linear_39_640" x1="686.457" y1="574.441" x2="256.735" y2="168.03" gradientUnits="userSpaceOnUse">
<stop stop-color="#72443A"/>
<stop offset="1" stop-color="#333E25"/>
</linearGradient>
<linearGradient id="paint38_linear_39_640" x1="-46.0117" y1="564.94" x2="-45.974" y2="567.264" gradientUnits="userSpaceOnUse">
<stop stop-color="white"/>
<stop offset="1" stop-color="white" stop-opacity="0"/>
</linearGradient>
<linearGradient id="paint39_linear_39_640" x1="979.345" y1="867.329" x2="549.623" y2="460.919" gradientUnits="userSpaceOnUse">
<stop stop-color="#72443A"/>
<stop offset="1" stop-color="#333E25"/>
</linearGradient>
<linearGradient id="paint40_linear_39_640" x1="246.876" y1="857.829" x2="246.914" y2="860.152" gradientUnits="userSpaceOnUse">
<stop stop-color="white"/>
<stop offset="1" stop-color="white" stop-opacity="0"/>
</linearGradient>
<linearGradient id="paint41_linear_39_640" x1="422.857" y1="310.841" x2="-6.86545" y2="-95.5692" gradientUnits="userSpaceOnUse">
<stop stop-color="#72443A"/>
<stop offset="1" stop-color="#333E25"/>
</linearGradient>
<linearGradient id="paint42_linear_39_640" x1="-309.612" y1="301.341" x2="-309.574" y2="303.664" gradientUnits="userSpaceOnUse">
<stop stop-color="white"/>
<stop offset="1" stop-color="white" stop-opacity="0"/>
</linearGradient>
<linearGradient id="paint43_linear_39_640" x1="715.746" y1="603.73" x2="286.024" y2="197.319" gradientUnits="userSpaceOnUse">
<stop stop-color="#72443A"/>
<stop offset="1" stop-color="#333E25"/>
</linearGradient>
<linearGradient id="paint44_linear_39_640" x1="1008.63" y1="896.618" x2="578.912" y2="490.208" gradientUnits="userSpaceOnUse">
<stop stop-color="#72443A"/>
<stop offset="1" stop-color="#333E25"/>
</linearGradient>
<linearGradient id="paint45_linear_39_640" x1="276.166" y1="887.118" x2="276.203" y2="889.442" gradientUnits="userSpaceOnUse">
<stop stop-color="white"/>
<stop offset="1" stop-color="white" stop-opacity="0"/>
</linearGradient>
<linearGradient id="paint46_linear_39_640" x1="452.145" y1="340.13" x2="22.4231" y2="-66.2801" gradientUnits="userSpaceOnUse">
<stop stop-color="#72443A"/>
<stop offset="1" stop-color="#333E25"/>
</linearGradient>
<linearGradient id="paint47_linear_39_640" x1="-280.323" y1="330.63" x2="-280.286" y2="332.953" gradientUnits="userSpaceOnUse">
<stop stop-color="white"/>
<stop offset="1" stop-color="white" stop-opacity="0"/>
</linearGradient>
<linearGradient id="paint48_linear_39_640" x1="745.034" y1="633.019" x2="315.312" y2="226.609" gradientUnits="userSpaceOnUse">
<stop stop-color="#72443A"/>
<stop offset="1" stop-color="#333E25"/>
</linearGradient>
<linearGradient id="paint49_linear_39_640" x1="1037.92" y1="925.907" x2="608.201" y2="519.497" gradientUnits="userSpaceOnUse">
<stop stop-color="#72443A"/>
<stop offset="1" stop-color="#333E25"/>
</linearGradient>
<linearGradient id="paint50_linear_39_640" x1="305.455" y1="916.406" x2="305.492" y2="918.73" gradientUnits="userSpaceOnUse">
<stop stop-color="white"/>
<stop offset="1" stop-color="white" stop-opacity="0"/>
</linearGradient>
<linearGradient id="paint51_linear_39_640" x1="481.434" y1="369.419" x2="51.7122" y2="-36.9915" gradientUnits="userSpaceOnUse">
<stop stop-color="#72443A"/>
<stop offset="1" stop-color="#333E25"/>
</linearGradient>
<linearGradient id="paint52_linear_39_640" x1="-251.034" y1="359.918" x2="-250.996" y2="362.242" gradientUnits="userSpaceOnUse">
<stop stop-color="white"/>
<stop offset="1" stop-color="white" stop-opacity="0"/>
</linearGradient>
<linearGradient id="paint53_linear_39_640" x1="774.323" y1="662.307" x2="344.601" y2="255.897" gradientUnits="userSpaceOnUse">
<stop stop-color="#72443A"/>
<stop offset="1" stop-color="#333E25"/>
</linearGradient>
<linearGradient id="paint54_linear_39_640" x1="1067.21" y1="955.196" x2="637.49" y2="548.786" gradientUnits="userSpaceOnUse">
<stop stop-color="#72443A"/>
<stop offset="1" stop-color="#333E25"/>
</linearGradient>
<linearGradient id="paint55_linear_39_640" x1="334.743" y1="945.695" x2="334.781" y2="948.019" gradientUnits="userSpaceOnUse">
<stop stop-color="white"/>
<stop offset="1" stop-color="white" stop-opacity="0"/>
</linearGradient>
</defs>
</svg>
