<svg width="412" height="602" viewBox="0 0 412 602" fill="none" xmlns="http://www.w3.org/2000/svg">
<mask id="mask0_5_258" style="mask-type:alpha" maskUnits="userSpaceOnUse" x="0" y="0" width="412" height="602">
<rect x="0.5" y="0.5" width="411" height="601" fill="url(#paint0_linear_5_258)" stroke="url(#paint1_linear_5_258)"/>
</mask>
<g mask="url(#mask0_5_258)">
<rect x="-513.927" y="96.1718" width="752.501" height="18.6203" transform="rotate(-45 -513.927 96.1718)" fill="url(#paint2_linear_5_258)" stroke="url(#paint3_linear_5_258)"/>
<rect x="-221.038" y="389.06" width="752.501" height="18.6203" transform="rotate(-45 -221.038 389.06)" fill="url(#paint4_linear_5_258)" stroke="url(#paint5_linear_5_258)"/>
<rect x="71.1436" y="681.949" width="753.501" height="19.6203" transform="rotate(-45 71.1436 681.949)" fill="url(#paint6_linear_5_258)"/>
<rect x="364.739" y="974.838" width="752.501" height="18.6203" transform="rotate(-45 364.739 974.838)" fill="url(#paint7_linear_5_258)" stroke="url(#paint8_linear_5_258)"/>
<rect x="-484.638" y="125.461" width="752.501" height="18.6203" transform="rotate(-45 -484.638 125.461)" fill="url(#paint9_linear_5_258)" stroke="url(#paint10_linear_5_258)"/>
<rect x="-191.749" y="418.349" width="752.501" height="18.6203" transform="rotate(-45 -191.749 418.349)" fill="url(#paint11_linear_5_258)" stroke="url(#paint12_linear_5_258)"/>
<rect x="100.432" y="711.238" width="753.501" height="19.6203" transform="rotate(-45 100.432 711.238)" fill="url(#paint13_linear_5_258)"/>
<rect x="-455.349" y="154.75" width="752.501" height="18.6203" transform="rotate(-45 -455.349 154.75)" fill="url(#paint14_linear_5_258)" stroke="url(#paint15_linear_5_258)"/>
<rect x="-162.46" y="447.638" width="752.501" height="18.6203" transform="rotate(-45 -162.46 447.638)" fill="url(#paint16_linear_5_258)" stroke="url(#paint17_linear_5_258)"/>
<rect x="129.721" y="740.527" width="753.501" height="19.6203" transform="rotate(-45 129.721 740.527)" fill="url(#paint18_linear_5_258)"/>
<rect x="-426.06" y="184.038" width="752.501" height="18.6203" transform="rotate(-45 -426.06 184.038)" fill="url(#paint19_linear_5_258)" stroke="url(#paint20_linear_5_258)"/>
<rect x="-133.172" y="476.927" width="752.501" height="18.6203" transform="rotate(-45 -133.172 476.927)" fill="url(#paint21_linear_5_258)" stroke="url(#paint22_linear_5_258)"/>
<rect x="159.01" y="769.815" width="753.501" height="19.6203" transform="rotate(-45 159.01 769.815)" fill="url(#paint23_linear_5_258)"/>
<rect x="-396.771" y="213.327" width="752.501" height="18.6203" transform="rotate(-45 -396.771 213.327)" fill="url(#paint24_linear_5_258)" stroke="url(#paint25_linear_5_258)"/>
<rect x="-103.883" y="506.216" width="752.501" height="18.6203" transform="rotate(-45 -103.883 506.216)" fill="url(#paint26_linear_5_258)" stroke="url(#paint27_linear_5_258)"/>
<rect x="188.299" y="799.104" width="753.501" height="19.6203" transform="rotate(-45 188.299 799.104)" fill="url(#paint28_linear_5_258)"/>
<rect x="-367.482" y="242.616" width="752.501" height="18.6203" transform="rotate(-45 -367.482 242.616)" fill="url(#paint29_linear_5_258)" stroke="url(#paint30_linear_5_258)"/>
<rect x="-74.5942" y="535.505" width="752.501" height="18.6203" transform="rotate(-45 -74.5942 535.505)" fill="url(#paint31_linear_5_258)" stroke="url(#paint32_linear_5_258)"/>
<rect x="218.295" y="828.393" width="752.501" height="18.6203" transform="rotate(-45 218.295 828.393)" fill="url(#paint33_linear_5_258)" stroke="url(#paint34_linear_5_258)"/>
<rect x="-338.194" y="271.905" width="752.501" height="18.6203" transform="rotate(-45 -338.194 271.905)" fill="url(#paint35_linear_5_258)" stroke="url(#paint36_linear_5_258)"/>
<rect x="-45.3046" y="564.793" width="752.501" height="18.6203" transform="rotate(-45 -45.3046 564.793)" fill="url(#paint37_linear_5_258)" stroke="url(#paint38_linear_5_258)"/>
<rect x="247.584" y="857.682" width="752.501" height="18.6203" transform="rotate(-45 247.584 857.682)" fill="url(#paint39_linear_5_258)" stroke="url(#paint40_linear_5_258)"/>
<rect x="-308.905" y="301.194" width="752.501" height="18.6203" transform="rotate(-45 -308.905 301.194)" fill="url(#paint41_linear_5_258)" stroke="url(#paint42_linear_5_258)"/>
<rect x="-16.7227" y="594.083" width="753.501" height="19.6203" transform="rotate(-45 -16.7227 594.083)" fill="url(#paint43_linear_5_258)"/>
<rect x="276.873" y="886.971" width="752.501" height="18.6203" transform="rotate(-45 276.873 886.971)" fill="url(#paint44_linear_5_258)" stroke="url(#paint45_linear_5_258)"/>
<rect x="-279.616" y="330.483" width="752.501" height="18.6203" transform="rotate(-45 -279.616 330.483)" fill="url(#paint46_linear_5_258)" stroke="url(#paint47_linear_5_258)"/>
<rect x="12.5654" y="623.371" width="753.501" height="19.6203" transform="rotate(-45 12.5654 623.371)" fill="url(#paint48_linear_5_258)"/>
<rect x="306.162" y="916.26" width="752.501" height="18.6203" transform="rotate(-45 306.162 916.26)" fill="url(#paint49_linear_5_258)" stroke="url(#paint50_linear_5_258)"/>
<rect x="-250.327" y="359.771" width="752.501" height="18.6203" transform="rotate(-45 -250.327 359.771)" fill="url(#paint51_linear_5_258)" stroke="url(#paint52_linear_5_258)"/>
<rect x="41.8545" y="652.66" width="753.501" height="19.6203" transform="rotate(-45 41.8545 652.66)" fill="url(#paint53_linear_5_258)"/>
<rect x="335.45" y="945.549" width="752.501" height="18.6203" transform="rotate(-45 335.45 945.549)" fill="url(#paint54_linear_5_258)" stroke="url(#paint55_linear_5_258)"/>
</g>
<defs>
<linearGradient id="paint0_linear_5_258" x1="-49" y1="296.5" x2="406.5" y2="296.5" gradientUnits="userSpaceOnUse">
<stop stop-color="#D78E00"/>
<stop offset="1" stop-color="#FC1E00"/>
</linearGradient>
<linearGradient id="paint1_linear_5_258" x1="3.79558e-06" y1="4.5" x2="35.5" y2="43.5" gradientUnits="userSpaceOnUse">
<stop stop-color="white"/>
<stop offset="1" stop-color="white" stop-opacity="0"/>
</linearGradient>
<linearGradient id="paint2_linear_5_258" x1="-604.249" y1="105.835" x2="228.808" y2="105.835" gradientUnits="userSpaceOnUse">
<stop stop-color="#D78E00"/>
<stop offset="1" stop-color="#FC1E00"/>
</linearGradient>
<linearGradient id="paint3_linear_5_258" x1="-514.634" y1="96.3184" x2="-514.596" y2="98.6421" gradientUnits="userSpaceOnUse">
<stop stop-color="white"/>
<stop offset="1" stop-color="white" stop-opacity="0"/>
</linearGradient>
<linearGradient id="paint4_linear_5_258" x1="-311.36" y1="398.724" x2="521.697" y2="398.724" gradientUnits="userSpaceOnUse">
<stop stop-color="#D78E00"/>
<stop offset="1" stop-color="#FC1E00"/>
</linearGradient>
<linearGradient id="paint5_linear_5_258" x1="-221.745" y1="389.207" x2="-221.707" y2="391.531" gradientUnits="userSpaceOnUse">
<stop stop-color="white"/>
<stop offset="1" stop-color="white" stop-opacity="0"/>
</linearGradient>
<linearGradient id="paint6_linear_5_258" x1="-18.4718" y1="691.613" x2="814.585" y2="691.612" gradientUnits="userSpaceOnUse">
<stop stop-color="#D78E00"/>
<stop offset="1" stop-color="#FC1E00"/>
</linearGradient>
<linearGradient id="paint7_linear_5_258" x1="274.416" y1="984.501" x2="1107.47" y2="984.501" gradientUnits="userSpaceOnUse">
<stop stop-color="#D78E00"/>
<stop offset="1" stop-color="#FC1E00"/>
</linearGradient>
<linearGradient id="paint8_linear_5_258" x1="364.032" y1="974.985" x2="364.069" y2="977.308" gradientUnits="userSpaceOnUse">
<stop stop-color="white"/>
<stop offset="1" stop-color="white" stop-opacity="0"/>
</linearGradient>
<linearGradient id="paint9_linear_5_258" x1="-574.96" y1="135.124" x2="258.097" y2="135.124" gradientUnits="userSpaceOnUse">
<stop stop-color="#D78E00"/>
<stop offset="1" stop-color="#FC1E00"/>
</linearGradient>
<linearGradient id="paint10_linear_5_258" x1="-485.345" y1="125.607" x2="-485.307" y2="127.931" gradientUnits="userSpaceOnUse">
<stop stop-color="white"/>
<stop offset="1" stop-color="white" stop-opacity="0"/>
</linearGradient>
<linearGradient id="paint11_linear_5_258" x1="-282.071" y1="428.013" x2="550.986" y2="428.013" gradientUnits="userSpaceOnUse">
<stop stop-color="#D78E00"/>
<stop offset="1" stop-color="#FC1E00"/>
</linearGradient>
<linearGradient id="paint12_linear_5_258" x1="-192.456" y1="418.496" x2="-192.418" y2="420.819" gradientUnits="userSpaceOnUse">
<stop stop-color="white"/>
<stop offset="1" stop-color="white" stop-opacity="0"/>
</linearGradient>
<linearGradient id="paint13_linear_5_258" x1="10.8167" y1="720.901" x2="843.874" y2="720.901" gradientUnits="userSpaceOnUse">
<stop stop-color="#D78E00"/>
<stop offset="1" stop-color="#FC1E00"/>
</linearGradient>
<linearGradient id="paint14_linear_5_258" x1="-545.672" y1="164.413" x2="287.385" y2="164.413" gradientUnits="userSpaceOnUse">
<stop stop-color="#D78E00"/>
<stop offset="1" stop-color="#FC1E00"/>
</linearGradient>
<linearGradient id="paint15_linear_5_258" x1="-456.056" y1="154.896" x2="-456.019" y2="157.22" gradientUnits="userSpaceOnUse">
<stop stop-color="white"/>
<stop offset="1" stop-color="white" stop-opacity="0"/>
</linearGradient>
<linearGradient id="paint16_linear_5_258" x1="-252.783" y1="457.302" x2="580.274" y2="457.302" gradientUnits="userSpaceOnUse">
<stop stop-color="#D78E00"/>
<stop offset="1" stop-color="#FC1E00"/>
</linearGradient>
<linearGradient id="paint17_linear_5_258" x1="-163.167" y1="447.785" x2="-163.13" y2="450.108" gradientUnits="userSpaceOnUse">
<stop stop-color="white"/>
<stop offset="1" stop-color="white" stop-opacity="0"/>
</linearGradient>
<linearGradient id="paint18_linear_5_258" x1="40.1053" y1="750.19" x2="873.163" y2="750.19" gradientUnits="userSpaceOnUse">
<stop stop-color="#D78E00"/>
<stop offset="1" stop-color="#FC1E00"/>
</linearGradient>
<linearGradient id="paint19_linear_5_258" x1="-516.382" y1="193.702" x2="316.675" y2="193.702" gradientUnits="userSpaceOnUse">
<stop stop-color="#D78E00"/>
<stop offset="1" stop-color="#FC1E00"/>
</linearGradient>
<linearGradient id="paint20_linear_5_258" x1="-426.767" y1="184.185" x2="-426.729" y2="186.509" gradientUnits="userSpaceOnUse">
<stop stop-color="white"/>
<stop offset="1" stop-color="white" stop-opacity="0"/>
</linearGradient>
<linearGradient id="paint21_linear_5_258" x1="-223.494" y1="486.59" x2="609.563" y2="486.59" gradientUnits="userSpaceOnUse">
<stop stop-color="#D78E00"/>
<stop offset="1" stop-color="#FC1E00"/>
</linearGradient>
<linearGradient id="paint22_linear_5_258" x1="-133.879" y1="477.074" x2="-133.841" y2="479.397" gradientUnits="userSpaceOnUse">
<stop stop-color="white"/>
<stop offset="1" stop-color="white" stop-opacity="0"/>
</linearGradient>
<linearGradient id="paint23_linear_5_258" x1="69.3944" y1="779.479" x2="902.452" y2="779.479" gradientUnits="userSpaceOnUse">
<stop stop-color="#D78E00"/>
<stop offset="1" stop-color="#FC1E00"/>
</linearGradient>
<linearGradient id="paint24_linear_5_258" x1="-487.093" y1="222.991" x2="345.964" y2="222.991" gradientUnits="userSpaceOnUse">
<stop stop-color="#D78E00"/>
<stop offset="1" stop-color="#FC1E00"/>
</linearGradient>
<linearGradient id="paint25_linear_5_258" x1="-397.478" y1="213.474" x2="-397.44" y2="215.797" gradientUnits="userSpaceOnUse">
<stop stop-color="white"/>
<stop offset="1" stop-color="white" stop-opacity="0"/>
</linearGradient>
<linearGradient id="paint26_linear_5_258" x1="-194.206" y1="515.88" x2="638.852" y2="515.879" gradientUnits="userSpaceOnUse">
<stop stop-color="#D78E00"/>
<stop offset="1" stop-color="#FC1E00"/>
</linearGradient>
<linearGradient id="paint27_linear_5_258" x1="-104.59" y1="506.363" x2="-104.553" y2="508.686" gradientUnits="userSpaceOnUse">
<stop stop-color="white"/>
<stop offset="1" stop-color="white" stop-opacity="0"/>
</linearGradient>
<linearGradient id="paint28_linear_5_258" x1="98.6834" y1="808.768" x2="931.741" y2="808.768" gradientUnits="userSpaceOnUse">
<stop stop-color="#D78E00"/>
<stop offset="1" stop-color="#FC1E00"/>
</linearGradient>
<linearGradient id="paint29_linear_5_258" x1="-457.805" y1="252.28" x2="375.252" y2="252.279" gradientUnits="userSpaceOnUse">
<stop stop-color="#D78E00"/>
<stop offset="1" stop-color="#FC1E00"/>
</linearGradient>
<linearGradient id="paint30_linear_5_258" x1="-368.189" y1="242.763" x2="-368.152" y2="245.086" gradientUnits="userSpaceOnUse">
<stop stop-color="white"/>
<stop offset="1" stop-color="white" stop-opacity="0"/>
</linearGradient>
<linearGradient id="paint31_linear_5_258" x1="-164.917" y1="545.168" x2="668.141" y2="545.168" gradientUnits="userSpaceOnUse">
<stop stop-color="#D78E00"/>
<stop offset="1" stop-color="#FC1E00"/>
</linearGradient>
<linearGradient id="paint32_linear_5_258" x1="-75.3013" y1="535.651" x2="-75.2636" y2="537.975" gradientUnits="userSpaceOnUse">
<stop stop-color="white"/>
<stop offset="1" stop-color="white" stop-opacity="0"/>
</linearGradient>
<linearGradient id="paint33_linear_5_258" x1="127.973" y1="838.057" x2="961.03" y2="838.056" gradientUnits="userSpaceOnUse">
<stop stop-color="#D78E00"/>
<stop offset="1" stop-color="#FC1E00"/>
</linearGradient>
<linearGradient id="paint34_linear_5_258" x1="217.588" y1="828.54" x2="217.626" y2="830.863" gradientUnits="userSpaceOnUse">
<stop stop-color="white"/>
<stop offset="1" stop-color="white" stop-opacity="0"/>
</linearGradient>
<linearGradient id="paint35_linear_5_258" x1="-428.516" y1="281.569" x2="404.541" y2="281.568" gradientUnits="userSpaceOnUse">
<stop stop-color="#D78E00"/>
<stop offset="1" stop-color="#FC1E00"/>
</linearGradient>
<linearGradient id="paint36_linear_5_258" x1="-338.901" y1="272.052" x2="-338.863" y2="274.375" gradientUnits="userSpaceOnUse">
<stop stop-color="white"/>
<stop offset="1" stop-color="white" stop-opacity="0"/>
</linearGradient>
<linearGradient id="paint37_linear_5_258" x1="-135.627" y1="574.457" x2="697.43" y2="574.457" gradientUnits="userSpaceOnUse">
<stop stop-color="#D78E00"/>
<stop offset="1" stop-color="#FC1E00"/>
</linearGradient>
<linearGradient id="paint38_linear_5_258" x1="-46.0117" y1="564.94" x2="-45.974" y2="567.264" gradientUnits="userSpaceOnUse">
<stop stop-color="white"/>
<stop offset="1" stop-color="white" stop-opacity="0"/>
</linearGradient>
<linearGradient id="paint39_linear_5_258" x1="157.261" y1="867.346" x2="990.318" y2="867.346" gradientUnits="userSpaceOnUse">
<stop stop-color="#D78E00"/>
<stop offset="1" stop-color="#FC1E00"/>
</linearGradient>
<linearGradient id="paint40_linear_5_258" x1="246.876" y1="857.829" x2="246.914" y2="860.152" gradientUnits="userSpaceOnUse">
<stop stop-color="white"/>
<stop offset="1" stop-color="white" stop-opacity="0"/>
</linearGradient>
<linearGradient id="paint41_linear_5_258" x1="-399.227" y1="310.857" x2="433.83" y2="310.857" gradientUnits="userSpaceOnUse">
<stop stop-color="#D78E00"/>
<stop offset="1" stop-color="#FC1E00"/>
</linearGradient>
<linearGradient id="paint42_linear_5_258" x1="-309.612" y1="301.341" x2="-309.574" y2="303.664" gradientUnits="userSpaceOnUse">
<stop stop-color="white"/>
<stop offset="1" stop-color="white" stop-opacity="0"/>
</linearGradient>
<linearGradient id="paint43_linear_5_258" x1="-106.338" y1="603.746" x2="726.719" y2="603.746" gradientUnits="userSpaceOnUse">
<stop stop-color="#D78E00"/>
<stop offset="1" stop-color="#FC1E00"/>
</linearGradient>
<linearGradient id="paint44_linear_5_258" x1="186.55" y1="896.635" x2="1019.61" y2="896.635" gradientUnits="userSpaceOnUse">
<stop stop-color="#D78E00"/>
<stop offset="1" stop-color="#FC1E00"/>
</linearGradient>
<linearGradient id="paint45_linear_5_258" x1="276.166" y1="887.118" x2="276.203" y2="889.442" gradientUnits="userSpaceOnUse">
<stop stop-color="white"/>
<stop offset="1" stop-color="white" stop-opacity="0"/>
</linearGradient>
<linearGradient id="paint46_linear_5_258" x1="-369.939" y1="340.146" x2="463.119" y2="340.146" gradientUnits="userSpaceOnUse">
<stop stop-color="#D78E00"/>
<stop offset="1" stop-color="#FC1E00"/>
</linearGradient>
<linearGradient id="paint47_linear_5_258" x1="-280.323" y1="330.629" x2="-280.286" y2="332.953" gradientUnits="userSpaceOnUse">
<stop stop-color="white"/>
<stop offset="1" stop-color="white" stop-opacity="0"/>
</linearGradient>
<linearGradient id="paint48_linear_5_258" x1="-77.05" y1="633.035" x2="756.007" y2="633.035" gradientUnits="userSpaceOnUse">
<stop stop-color="#D78E00"/>
<stop offset="1" stop-color="#FC1E00"/>
</linearGradient>
<linearGradient id="paint49_linear_5_258" x1="215.839" y1="925.923" x2="1048.9" y2="925.923" gradientUnits="userSpaceOnUse">
<stop stop-color="#D78E00"/>
<stop offset="1" stop-color="#FC1E00"/>
</linearGradient>
<linearGradient id="paint50_linear_5_258" x1="305.455" y1="916.406" x2="305.492" y2="918.73" gradientUnits="userSpaceOnUse">
<stop stop-color="white"/>
<stop offset="1" stop-color="white" stop-opacity="0"/>
</linearGradient>
<linearGradient id="paint51_linear_5_258" x1="-340.65" y1="369.435" x2="492.408" y2="369.435" gradientUnits="userSpaceOnUse">
<stop stop-color="#D78E00"/>
<stop offset="1" stop-color="#FC1E00"/>
</linearGradient>
<linearGradient id="paint52_linear_5_258" x1="-251.034" y1="359.918" x2="-250.996" y2="362.242" gradientUnits="userSpaceOnUse">
<stop stop-color="white"/>
<stop offset="1" stop-color="white" stop-opacity="0"/>
</linearGradient>
<linearGradient id="paint53_linear_5_258" x1="-47.7609" y1="662.323" x2="785.296" y2="662.323" gradientUnits="userSpaceOnUse">
<stop stop-color="#D78E00"/>
<stop offset="1" stop-color="#FC1E00"/>
</linearGradient>
<linearGradient id="paint54_linear_5_258" x1="245.128" y1="955.212" x2="1078.19" y2="955.212" gradientUnits="userSpaceOnUse">
<stop stop-color="#D78E00"/>
<stop offset="1" stop-color="#FC1E00"/>
</linearGradient>
<linearGradient id="paint55_linear_5_258" x1="334.743" y1="945.695" x2="334.781" y2="948.019" gradientUnits="userSpaceOnUse">
<stop stop-color="white"/>
<stop offset="1" stop-color="white" stop-opacity="0"/>
</linearGradient>
</defs>
</svg>
