<?xml version="1.0" encoding="UTF-8"?>
<svg id="Layer_1" data-name="Layer 1" xmlns="http://www.w3.org/2000/svg" version="1.1" viewBox="0 0 850.4 155.9">
  <defs>
    <style>
      .cls-1 {
        fill: none;
        stroke: #fff;
        stroke-miterlimit: 10;
        stroke-width: 19px;
      }

      .cls-2 {
        display: none;
        fill: #000;
      }

      .cls-2, .cls-3 {
        stroke-width: 0px;
      }

      .cls-3 {
        fill: #fff;
      }
    </style>
  </defs>
  <rect class="cls-2" x="0" y="0" width="850" height="155.4"/>
  <g>
    <path class="cls-3" d="M94.3,37v16.6h-21.7v66.5h-20V53.6h-21.7v-16.6h63.4Z"/>
    <path class="cls-3" d="M146.9,120.1l-13.9-31.5h-10.4v31.5h-20V37h31.3c19.2,0,31.5,8.8,31.5,26.2s-4.8,18.2-13.3,22.1l16.6,35h-21.9ZM131.6,72.1c8.1,0,13.9-1.1,13.9-8.9s-5.8-9.5-13.9-9.5h-8.9v18.4h8.9Z"/>
    <path class="cls-3" d="M199.1,120.1h-20V37h20v83.2Z"/>
    <path class="cls-3" d="M243.8,37c19.6,0,31.1,6.9,31.1,22.1s-3.7,13.5-9.5,17.4c7.6,3.7,12.2,9.6,12.2,19.9s-8.9,23.9-31.1,23.9h-31.7V37h29ZM234.8,68.7h8.4c8.1,0,11.7-2.5,11.7-7.4s-2.5-7.8-13.5-7.8h-6.6v15.2ZM234.8,103.5h9.5c8.9,0,13.3-3,13.3-9.2s-4.6-9-14.7-9h-8.1v18.2Z"/>
    <path class="cls-3" d="M280,120.1l28.9-83.2h19.3l28.9,83.2h-21.3l-4.5-14.2h-25.7l-4.3,14.2h-21.3ZM310.9,89.3h15.3l-7.6-24.6-7.7,24.6Z"/>
    <path class="cls-3" d="M383.2,103.5h32.5v16.6h-52.6V37h20v66.5Z"/>
    <path class="cls-3" d="M515.9,76.2v8.9c0,24.8-11.7,36.3-30.6,36.3s-32.8-11.5-32.8-36.3v-11.3c0-26.8,13.9-38,32.8-38s28.2,10.6,30.6,26.9h-19c-.8-5.2-4.3-10.2-11.6-10.2s-12.8,6-12.8,19.6v13c0,13.6,4.5,19.6,12.8,19.6s10.7-5.1,11.5-11.9h-11.1v-16.6h30.3Z"/>
    <path class="cls-3" d="M517.2,120.1l28.9-83.2h19.3l28.9,83.2h-21.3l-4.5-14.2h-25.7l-4.3,14.2h-21.3ZM548.1,89.3h15.3l-7.6-24.6-7.7,24.6Z"/>
    <path class="cls-3" d="M641.5,79.2l22.4-42.2h18.7v83.2h-18.8v-47l-17.1,33.3h-10.7l-16.8-32.9v46.6h-18.8V37h18.6l22.5,42.2Z"/>
    <path class="cls-3" d="M749.6,37v16.6h-32.5v15.2h28.9v16.6h-28.9v18.1h32.5v16.6h-52.6V37h52.6Z"/>
    <path class="cls-3" d="M803.1,60c-3.3-5.5-7.4-7.6-14.8-7.6s-9.5,3-9.5,7.2,4.3,7.7,14.8,10.7c18.1,5.2,25,11.9,25,26.2s-10.1,24.8-29,24.8-25.4-3.7-33.3-13.6l14.9-10.5c4.1,5.2,9.2,7.5,16.6,7.5s10.7-3.3,10.7-7.2-3.4-7.2-15.7-11.2c-16.9-5.4-24.1-13.1-24.1-26.5s9-24,29.3-24,24,4.5,29.9,13.6l-14.8,10.6Z"/>
  </g>
  <rect class="cls-1" x="11.5" y="9.3" width="829.6" height="137.6"/>
</svg>