<?xml version="1.0" encoding="utf-8"?>
<!-- Generator: Adobe Illustrator 28.2.0, SVG Export Plug-In . SVG Version: 6.00 Build 0)  -->
<svg version="1.1" id="Layer_1" xmlns="http://www.w3.org/2000/svg" xmlns:xlink="http://www.w3.org/1999/xlink" x="0px" y="0px"
	 viewBox="0 0 566.93 425.2" style="enable-background:new 0 0 566.93 425.2;" xml:space="preserve">
<style type="text/css">
	.st0{display:none;}
	.st1{fill:#FFFFFF;}
	.st2{fill:none;stroke:#FFFFFF;stroke-width:19;stroke-miterlimit:10;}
</style>
<rect class="st0" width="566.93" height="425.2"/>
<rect x="89.64" y="170.44" class="st0" width="375.82" height="104"/>
<rect x="697.01" y="216.54" style="fill:none;" width="12.11" height="1.35"/>
<g class="st0">
</g>
<g>
	<path class="st1" d="M154.32,111.84v16.63h-21.7V195h-20.01v-66.53h-21.7v-16.63H154.32z"/>
	<path class="st1" d="M206.99,195l-13.86-31.46h-10.37V195h-20.01v-83.17h31.34c19.16,0,31.46,8.8,31.46,26.15
		c0,10.85-4.82,18.2-13.26,22.06L228.93,195H206.99z M191.68,146.91c8.08,0,13.86-1.08,13.86-8.92c0-7.96-5.79-9.52-13.86-9.52
		h-8.92v18.44H191.68z"/>
	<path class="st1" d="M259.18,195h-20.01v-83.17h20.01V195z"/>
	<path class="st1" d="M303.9,111.84c19.65,0,31.1,6.87,31.1,22.06c0,8.56-3.74,13.5-9.52,17.36c7.59,3.74,12.17,9.64,12.17,19.89
		c0,13.26-8.92,23.87-31.1,23.87h-31.7v-83.17H303.9z M294.86,143.54h8.44c8.08,0,11.69-2.53,11.69-7.35c0-4.94-2.53-7.83-13.5-7.83
		h-6.63V143.54z M294.86,178.37h9.52c8.92,0,13.26-3.01,13.26-9.16c0-6.75-4.58-9.04-14.7-9.04h-8.08V178.37z"/>
	<path class="st1" d="M340.05,195l28.93-83.17h19.29L417.19,195h-21.33l-4.46-14.22h-25.67L361.39,195H340.05z M370.91,164.15h15.31
		l-7.59-24.59L370.91,164.15z"/>
	<path class="st1" d="M443.23,178.37h32.54V195h-52.55v-83.17h20.01V178.37z"/>
</g>
<rect x="63.5" y="84.12" class="st2" width="439.92" height="249.51"/>
<g>
	<path class="st1" d="M156.56,289.05l15.6-44.85h10.4l15.6,44.85h-11.51l-2.41-7.67h-13.85l-2.34,7.67H156.56z M173.2,272.41h8.26
		l-4.1-13.26L173.2,272.41z"/>
	<path class="st1" d="M212.85,289.05h-10.79V244.2h10.79V289.05z"/>
	<path class="st1" d="M245.16,289.05l-7.48-16.97h-5.59v16.97H221.3V244.2h16.9c10.34,0,16.97,4.75,16.97,14.11
		c0,5.85-2.6,9.82-7.15,11.9l8.97,18.85H245.16z M236.9,263.11c4.36,0,7.48-0.58,7.48-4.81c0-4.29-3.12-5.13-7.48-5.13h-4.81v9.95
		H236.9z"/>
	<path class="st1" d="M285.19,256.61c-1.75-2.99-3.96-4.1-7.99-4.1c-3.58,0-5.14,1.62-5.14,3.9c0,2.67,2.34,4.16,8,5.79
		c9.75,2.79,13.45,6.44,13.45,14.11c0,8.12-5.46,13.39-15.67,13.39c-8.19,0-13.72-2.02-17.94-7.35l8.06-5.66
		c2.21,2.8,4.94,4.03,8.97,4.03c4.16,0,5.79-1.75,5.79-3.9c0-2.6-1.82-3.9-8.45-6.04c-9.1-2.92-13-7.08-13-14.3
		c0-7.41,4.88-12.94,15.8-12.94c7.15,0,12.94,2.41,16.12,7.35L285.19,256.61z"/>
	<path class="st1" d="M316.07,289.7c-10.21,0-17.68-6.18-17.68-19.57v-7.02c0-13.52,7.48-19.57,17.68-19.57s17.68,6.05,17.68,19.57
		v7.02C333.75,283.52,326.27,289.7,316.07,289.7z M309.18,270.13c0,7.34,2.41,10.59,6.89,10.59s6.89-3.25,6.89-10.59v-7.02
		c0-7.35-2.41-10.6-6.89-10.6s-6.89,3.25-6.89,10.6V270.13z"/>
	<path class="st1" d="M368.91,244.2v8.97h-17.55v9.23h15.6v8.97h-15.6v17.68h-10.79V244.2H368.91z"/>
	<path class="st1" d="M405.05,244.2v8.97h-11.7v35.88h-10.79v-35.88h-11.7v-8.97H405.05z"/>
</g>
</svg>
