<?xml version="1.0" encoding="utf-8"?>
<!-- Generator: Adobe Illustrator 28.2.0, SVG Export Plug-In . SVG Version: 6.00 Build 0)  -->
<svg version="1.1" id="Layer_1" xmlns="http://www.w3.org/2000/svg" xmlns:xlink="http://www.w3.org/1999/xlink" x="0px" y="0px"
	 viewBox="0 0 566.93 425.2" style="enable-background:new 0 0 566.93 425.2;" xml:space="preserve">
<style type="text/css">
	.st0{display:none;}
	.st1{fill:#FFFFFF;}
	.st2{fill:none;stroke:#FFFFFF;stroke-width:19;stroke-miterlimit:10;}
</style>
<rect class="st0" width="566.93" height="425.2"/>
<rect x="89.64" y="170.44" class="st0" width="375.82" height="104"/>
<rect x="697.01" y="216.54" style="fill:none;" width="12.11" height="1.35"/>
<g class="st0">
</g>
<g>
	<path class="st1" d="M154.32,111.84v16.63h-21.7V195h-20.01v-66.53h-21.7v-16.63H154.32z"/>
	<path class="st1" d="M206.99,195l-13.86-31.46h-10.37V195h-20.01v-83.17h31.34c19.16,0,31.46,8.8,31.46,26.15
		c0,10.85-4.82,18.2-13.26,22.06L228.93,195H206.99z M191.68,146.91c8.08,0,13.86-1.08,13.86-8.92c0-7.96-5.79-9.52-13.86-9.52
		h-8.92v18.44H191.68z"/>
	<path class="st1" d="M259.18,195h-20.01v-83.17h20.01V195z"/>
	<path class="st1" d="M303.9,111.84c19.65,0,31.1,6.87,31.1,22.06c0,8.56-3.74,13.5-9.52,17.36c7.59,3.74,12.17,9.64,12.17,19.89
		c0,13.26-8.92,23.87-31.1,23.87h-31.7v-83.17H303.9z M294.86,143.54h8.44c8.08,0,11.69-2.53,11.69-7.35c0-4.94-2.53-7.83-13.5-7.83
		h-6.63V143.54z M294.86,178.37h9.52c8.92,0,13.26-3.01,13.26-9.16c0-6.75-4.58-9.04-14.7-9.04h-8.08V178.37z"/>
	<path class="st1" d="M340.05,195l28.93-83.17h19.29L417.19,195h-21.33l-4.46-14.22h-25.67L361.39,195H340.05z M370.91,164.15h15.31
		l-7.59-24.59L370.91,164.15z"/>
	<path class="st1" d="M443.23,178.37h32.54V195h-52.55v-83.17h20.01V178.37z"/>
</g>
<rect x="63.5" y="84.12" class="st2" width="439.92" height="249.51"/>
<g>
	<path class="st1" d="M119.37,280.73h17.55v8.97h-28.34v-44.85h10.79V280.73z"/>
	<path class="st1" d="M138.22,289.7l15.6-44.85h10.4l15.6,44.85h-11.51l-2.41-7.67h-13.85l-2.34,7.67H138.22z M154.86,273.06h8.26
		l-4.1-13.26L154.86,273.06z"/>
	<path class="st1" d="M206.41,257.26c-1.75-2.99-3.96-4.09-8-4.09c-3.58,0-5.14,1.62-5.14,3.9c0,2.67,2.34,4.16,8,5.79
		c9.75,2.8,13.46,6.44,13.46,14.11c0,8.12-5.46,13.39-15.67,13.39c-8.19,0-13.72-2.01-17.94-7.34l8.06-5.66
		c2.21,2.79,4.94,4.03,8.97,4.03c4.16,0,5.79-1.75,5.79-3.9c0-2.6-1.82-3.9-8.45-6.04c-9.1-2.93-13-7.09-13-14.3
		c0-7.41,4.88-12.94,15.8-12.94c7.15,0,12.94,2.41,16.12,7.35L206.41,257.26z"/>
	<path class="st1" d="M248.92,244.85v8.97h-17.55v8.19h15.6v8.97h-15.6v9.75h17.55v8.97h-28.34v-44.85H248.92z"/>
	<path class="st1" d="M278.29,289.7l-7.48-16.97h-5.59v16.97h-10.79v-44.85h16.9c10.34,0,16.97,4.75,16.97,14.11
		c0,5.85-2.6,9.82-7.15,11.9l8.97,18.85H278.29z M270.04,263.76c4.36,0,7.48-0.58,7.48-4.81c0-4.29-3.12-5.14-7.48-5.14h-4.81v9.95
		H270.04z"/>
	<path class="st1" d="M327.95,265.97v4.81c0,13.39-6.3,19.57-16.51,19.57c-10.21,0-17.68-6.17-17.68-19.57v-6.11
		c0-14.43,7.47-20.48,17.68-20.48c9.75,0,15.21,5.72,16.51,14.5h-10.27c-0.46-2.79-2.34-5.52-6.24-5.52
		c-4.49,0-6.89,3.25-6.89,10.59v7.02c0,7.35,2.4,10.6,6.89,10.6c4.36,0,5.79-2.73,6.18-6.44h-5.98v-8.97H327.95z"/>
	<path class="st1" d="M328.67,289.7l15.6-44.85h10.4l15.6,44.85h-11.5l-2.41-7.67h-13.85l-2.34,7.67H328.67z M345.31,273.06h8.26
		l-4.1-13.26L345.31,273.06z"/>
	<path class="st1" d="M395.68,267.6l12.09-22.75h10.08v44.85h-10.14v-25.35l-9.23,17.94h-5.79l-9.04-17.75v25.16h-10.14v-44.85
		h10.01L395.68,267.6z"/>
	<path class="st1" d="M453.99,244.85v8.97h-17.55v8.19h15.6v8.97h-15.6v9.75h17.55v8.97h-28.34v-44.85H453.99z"/>
</g>
</svg>
